{"asset":{"version":"2.0","generator":"Blockbench 4.11.2 glTF exporter"},"scenes":[{"nodes":[6],"name":"blockbench_export"}],"scene":0,"nodes":[{"translation":[0,-0.11249999999999996,1.0249999999999995],"name":"cuboid","mesh":0},{"rotation":[-0.18301270189221905,-0.18301270189221963,-0.6830127018922185,0.6830127018922202],"translation":[0.27499999999999997,0.1125000000000001,0.58125],"name":"Wheel","mesh":1},{"rotation":[-0.18301270189221905,-0.18301270189221963,-0.6830127018922185,0.6830127018922202],"translation":[0.3374999999999999,0.12500000000000017,-0.60625],"name":"Wheel","mesh":2},{"rotation":[-0.18301270189221905,0.18301270189221963,0.6830127018922185,0.6830127018922202],"translation":[-0.3375,0.12500000000000017,-0.60625],"name":"Wheel","mesh":3},{"rotation":[-0.18301270189221905,0.18301270189221963,0.6830127018922185,0.6830127018922202],"translation":[-0.21250000000000002,0.1125000000000001,0.58125],"name":"Wheel","mesh":4},{"translation":[0,0.14999999999999997,0],"name":"Root","children":[0,1,2,3,4]},{"children":[5]}],"bufferViews":[{"buffer":0,"byteOffset":0,"byteLength":19104,"target":34962,"byteStride":12},{"buffer":0,"byteOffset":19104,"byteLength":19104,"target":34962,"byteStride":12},{"buffer":0,"byteOffset":38208,"byteLength":12736,"target":34962,"byteStride":8},{"buffer":0,"byteOffset":50944,"byteLength":4776,"target":34963},{"buffer":0,"byteOffset":55720,"byteLength":3888,"target":34962,"byteStride":12},{"buffer":0,"byteOffset":59608,"byteLength":3888,"target":34962,"byteStride":12},{"buffer":0,"byteOffset":63496,"byteLength":2592,"target":34962,"byteStride":8},{"buffer":0,"byteOffset":66088,"byteLength":864,"target":34963},{"buffer":0,"byteOffset":66952,"byteLength":3888,"target":34962,"byteStride":12},{"buffer":0,"byteOffset":70840,"byteLength":3888,"target":34962,"byteStride":12},{"buffer":0,"byteOffset":74728,"byteLength":2592,"target":34962,"byteStride":8},{"buffer":0,"byteOffset":77320,"byteLength":864,"target":34963},{"buffer":0,"byteOffset":78184,"byteLength":3888,"target":34962,"byteStride":12},{"buffer":0,"byteOffset":82072,"byteLength":3888,"target":34962,"byteStride":12},{"buffer":0,"byteOffset":85960,"byteLength":2592,"target":34962,"byteStride":8},{"buffer":0,"byteOffset":88552,"byteLength":864,"target":34963},{"buffer":0,"byteOffset":89416,"byteLength":3888,"target":34962,"byteStride":12},{"buffer":0,"byteOffset":93304,"byteLength":3888,"target":34962,"byteStride":12},{"buffer":0,"byteOffset":97192,"byteLength":2592,"target":34962,"byteStride":8},{"buffer":0,"byteOffset":99784,"byteLength":864,"target":34963}],"buffers":[{"byteLength":100648,"uri":"data:application/octet-stream;base64,"}],"accessors":[{"bufferView":0,"componentType":5126,"count":1592,"max":[0.625,0.90625,0.13124999403953552],"min":[-0.625,0.04374999925494194,-2.2249999046325684],"type":"VEC3"},{"bufferView":1,"componentType":5126,"count":1592,"max":[1,1,1],"min":[-1,-1,-1],"type":"VEC3"},{"bufferView":2,"componentType":5126,"count":1592,"max":[0.828125,0.828125],"min":[0,0],"type":"VEC2"},{"bufferView":3,"componentType":5123,"count":2388,"max":[1591],"min":[0],"type":"SCALAR"},{"bufferView":4,"componentType":5126,"count":324,"max":[0.26875001192092896,0.375,0.26875001192092896],"min":[-0.26875001192092896,0.125,-0.26875001192092896],"type":"VEC3"},{"bufferView":5,"componentType":5126,"count":324,"max":[0.985255777835846,1,1],"min":[-0.985255777835846,-1,-1],"type":"VEC3"},{"bufferView":6,"componentType":5126,"count":324,"max":[0.8359375,0.8125],"min":[0.001986718736588955,0.0390625],"type":"VEC2"},{"bufferView":7,"componentType":5123,"count":432,"max":[323],"min":[0],"type":"SCALAR"},{"bufferView":8,"componentType":5126,"count":324,"max":[0.28125,0.375,0.28125],"min":[-0.28125,0.125,-0.28125],"type":"VEC3"},{"bufferView":9,"componentType":5126,"count":324,"max":[0.985255777835846,1,1],"min":[-0.985255777835846,-1,-1],"type":"VEC3"},{"bufferView":10,"componentType":5126,"count":324,"max":[0.8359375,0.8125],"min":[0,0],"type":"VEC2"},{"bufferView":11,"componentType":5123,"count":432,"max":[323],"min":[0],"type":"SCALAR"},{"bufferView":12,"componentType":5126,"count":324,"max":[0.28125,0.375,0.28125],"min":[-0.28125,0.125,-0.28125],"type":"VEC3"},{"bufferView":13,"componentType":5126,"count":324,"max":[0.985255777835846,1,1],"min":[-0.985255777835846,-1,-1],"type":"VEC3"},{"bufferView":14,"componentType":5126,"count":324,"max":[0.827426552772522,0.78125],"min":[0.2515726685523987,0.2578125],"type":"VEC2"},{"bufferView":15,"componentType":5123,"count":432,"max":[323],"min":[0],"type":"SCALAR"},{"bufferView":16,"componentType":5126,"count":324,"max":[0.26875001192092896,0.375,0.26875001192092896],"min":[-0.26875001192092896,0.125,-0.26875001192092896],"type":"VEC3"},{"bufferView":17,"componentType":5126,"count":324,"max":[0.985255777835846,1,1],"min":[-0.985255777835846,-1,-1],"type":"VEC3"},{"bufferView":18,"componentType":5126,"count":324,"max":[0.8338812589645386,0.8125],"min":[0.07167734205722809,0],"type":"VEC2"},{"bufferView":19,"componentType":5123,"count":432,"max":[323],"min":[0],"type":"SCALAR"}],"materials":[{"pbrMetallicRoughness":{"metallicFactor":0,"roughnessFactor":1,"baseColorTexture":{"index":0}},"alphaMode":"MASK","alphaCutoff":0.05,"doubleSided":true}],"textures":[{"sampler":0,"source":0,"name":"Cyberpunk_Car3_Texture.png"}],"samplers":[{"magFilter":9728,"minFilter":9728,"wrapS":33071,"wrapT":33071}],"images":[{"mimeType":"image/png","uri":"data:image/png;base64,"}],"meshes":[{"primitives":[{"mode":4,"attributes":{"POSITION":0,"NORMAL":1,"TEXCOORD_0":2},"indices":3,"material":0}]},{"primitives":[{"mode":4,"attributes":{"POSITION":4,"NORMAL":5,"TEXCOORD_0":6},"indices":7,"material":0}]},{"primitives":[{"mode":4,"attributes":{"POSITION":8,"NORMAL":9,"TEXCOORD_0":10},"indices":11,"material":0}]},{"primitives":[{"mode":4,"attributes":{"POSITION":12,"NORMAL":13,"TEXCOORD_0":14},"indices":15,"material":0}]},{"primitives":[{"mode":4,"attributes":{"POSITION":16,"NORMAL":17,"TEXCOORD_0":18},"indices":19,"material":0}]}]}