{"asset":{"version":"2.0","generator":"Blockbench 4.11.2 glTF exporter"},"scenes":[{"nodes":[3],"name":"blockbench_export"}],"scene":0,"nodes":[{"rotation":[0,0.7071067811865475,0,0.7071067811865476],"translation":[5.125000000000006,2.746875000000003,-1.6875000000000062],"name":"Signs","mesh":0},{"rotation":[5.827961966399878e-20,2.282896094385478e-15,1.223481206754083e-16,1],"name":"Building","mesh":1},{"rotation":[-4.120991426922535e-20,-0.7071067811865475,-4.1209914269225355e-20,0.7071067811865476],"translation":[-6.217248937900877e-15,12.659374999999997,5.773159728050814e-15],"name":"Group","children":[0,1]},{"children":[2]}],"bufferViews":[{"buffer":0,"byteOffset":0,"byteLength":5184,"target":34962,"byteStride":12},{"buffer":0,"byteOffset":5184,"byteLength":5184,"target":34962,"byteStride":12},{"buffer":0,"byteOffset":10368,"byteLength":3456,"target":34962,"byteStride":8},{"buffer":0,"byteOffset":13824,"byteLength":1296,"target":34963},{"buffer":0,"byteOffset":15120,"byteLength":13152,"target":34962,"byteStride":12},{"buffer":0,"byteOffset":28272,"byteLength":13152,"target":34962,"byteStride":12},{"buffer":0,"byteOffset":41424,"byteLength":8768,"target":34962,"byteStride":8},{"buffer":0,"byteOffset":50192,"byteLength":3288,"target":34963}],"buffers":[{"byteLength":53480,"uri":"data:application/octet-stream;base64,"}],"accessors":[{"bufferView":0,"componentType":5126,"count":432,"max":[3.6875,2.125,0.375],"min":[-6.25,-10.03125,-2.6875],"type":"VEC3"},{"bufferView":1,"componentType":5126,"count":432,"max":[1,1,1],"min":[-1,-1,-1],"type":"VEC3"},{"bufferView":2,"componentType":5126,"count":432,"max":[0.73046875,0.75],"min":[0.03125,0],"type":"VEC2"},{"bufferView":3,"componentType":5123,"count":648,"max":[431],"min":[0],"type":"SCALAR"},{"bufferView":4,"componentType":5126,"count":1096,"max":[6.40625,13.378125190734863,6.375],"min":[-6.40625,-12.628125190734863,-6.40625],"type":"VEC3"},{"bufferView":5,"componentType":5126,"count":1096,"max":[1,1,1],"min":[-1,-1,-1],"type":"VEC3"},{"bufferView":6,"componentType":5126,"count":1096,"max":[0.8828125,0.8828125],"min":[0,0],"type":"VEC2"},{"bufferView":7,"componentType":5123,"count":1644,"max":[1095],"min":[0],"type":"SCALAR"}],"materials":[{"pbrMetallicRoughness":{"metallicFactor":0,"roughnessFactor":1,"baseColorTexture":{"index":0}},"alphaMode":"MASK","alphaCutoff":0.05,"doubleSided":true}],"textures":[{"sampler":0,"source":0,"name":"Building_3_1x1_Texture.png"}],"samplers":[{"magFilter":9728,"minFilter":9728,"wrapS":33071,"wrapT":33071}],"images":[{"mimeType":"image/png","uri":"data:image/png;base64,"}],"meshes":[{"primitives":[{"mode":4,"attributes":{"POSITION":0,"NORMAL":1,"TEXCOORD_0":2},"indices":3,"material":0}]},{"primitives":[{"mode":4,"attributes":{"POSITION":4,"NORMAL":5,"TEXCOORD_0":6},"indices":7,"material":0}]}]}