{"asset":{"version":"2.0","generator":"Blockbench 4.11.2 glTF exporter"},"scenes":[{"nodes":[2],"name":"blockbench_export"}],"scene":0,"nodes":[{"name":"cuboid","mesh":0},{"translation":[0,-0.21874999999999997,0],"name":"Building4","children":[0]},{"children":[1]}],"bufferViews":[{"buffer":0,"byteOffset":0,"byteLength":16128,"target":34962,"byteStride":12},{"buffer":0,"byteOffset":16128,"byteLength":16128,"target":34962,"byteStride":12},{"buffer":0,"byteOffset":32256,"byteLength":10752,"target":34962,"byteStride":8},{"buffer":0,"byteOffset":43008,"byteLength":4032,"target":34963}],"buffers":[{"byteLength":47040,"uri":"data:application/octet-stream;base64,"}],"accessors":[{"bufferView":0,"componentType":5126,"count":1344,"max":[7.125,23.193750381469727,9.6875],"min":[-7.125,0.34375,-7.125],"type":"VEC3"},{"bufferView":1,"componentType":5126,"count":1344,"max":[1,1,1],"min":[-1,-1,-1],"type":"VEC3"},{"bufferView":2,"componentType":5126,"count":1344,"max":[0.681640625,0.66796875],"min":[0,0],"type":"VEC2"},{"bufferView":3,"componentType":5123,"count":2016,"max":[1343],"min":[0],"type":"SCALAR"}],"materials":[{"pbrMetallicRoughness":{"metallicFactor":0,"roughnessFactor":1,"baseColorTexture":{"index":0}},"alphaMode":"MASK","alphaCutoff":0.05,"doubleSided":true}],"textures":[{"sampler":0,"source":0,"name":"Building_2_1x1.png"}],"samplers":[{"magFilter":9728,"minFilter":9728,"wrapS":33071,"wrapT":33071}],"images":[{"mimeType":"image/png","uri":"data:image/png;base64,"}],"meshes":[{"primitives":[{"mode":4,"attributes":{"POSITION":0,"NORMAL":1,"TEXCOORD_0":2},"indices":3,"material":0}]}]}