{"asset":{"version":"2.0","generator":"Blockbench 4.11.2 glTF exporter"},"scenes":[{"nodes":[17],"name":"blockbench_export"}],"scene":0,"nodes":[{"translation":[0,0.3125,0],"name":"cuboid","mesh":0},{"translation":[0.45625000000000027,0.26739624640438625,0.4436558148321126],"name":"cuboid","mesh":1},{"translation":[0.45625000000000027,0.26739624640438625,-0.4438441851678876],"name":"cuboid","mesh":2},{"translation":[-0.45625000000000027,0.26739624640438625,0.4436558148321126],"name":"cuboid","mesh":3},{"translation":[-0.45625000000000027,0.26739624640438625,-0.4438441851678876],"name":"cuboid","mesh":4},{"translation":[0,0.4375,-0.8500000000000001],"name":"cuboid","mesh":5},{"translation":[-0.1875,0.5,-0.84375],"name":"cube","mesh":6},{"translation":[0.125,0.5,-0.84375],"name":"cube","mesh":7},{"translation":[0,-0.0625,-0.9375],"name":"cuboid","mesh":8},{"translation":[0,-0.0625,0.9437500000000002],"name":"cuboid","mesh":9},{"name":"Main","children":[0,1,2,3,4,5,6,7,8,9]},{"rotation":[-0.18301270189221905,-0.18301270189221963,-0.6830127018922185,0.6830127018922202],"translation":[0,0.19374999999999998,0.44999999999999996],"name":"Wheel","mesh":10},{"rotation":[-0.18301270189221905,0.18301270189221963,0.6830127018922185,0.6830127018922202],"translation":[-0.375,0.19374999999999998,0.44999999999999996],"name":"Wheel","mesh":11},{"rotation":[-0.18301270189221905,-0.18301270189221963,-0.6830127018922185,0.6830127018922202],"translation":[0,0.19374999999999998,-0.4437500000000001],"name":"Wheel","mesh":12},{"rotation":[-0.18301270189221905,0.18301270189221963,0.6830127018922185,0.6830127018922202],"translation":[-0.375,0.19374999999999998,-0.4437500000000001],"name":"Wheel","mesh":13},{"translation":[0.1875,0,0],"name":"Wheels","children":[11,12,13,14]},{"name":"Root","children":[10,15]},{"children":[16]}],"bufferViews":[{"buffer":0,"byteOffset":0,"byteLength":3744,"target":34962,"byteStride":12},{"buffer":0,"byteOffset":3744,"byteLength":3744,"target":34962,"byteStride":12},{"buffer":0,"byteOffset":7488,"byteLength":2496,"target":34962,"byteStride":8},{"buffer":0,"byteOffset":9984,"byteLength":936,"target":34963},{"buffer":0,"byteOffset":10920,"byteLength":1056,"target":34962,"byteStride":12},{"buffer":0,"byteOffset":11976,"byteLength":1056,"target":34962,"byteStride":12},{"buffer":0,"byteOffset":13032,"byteLength":704,"target":34962,"byteStride":8},{"buffer":0,"byteOffset":13736,"byteLength":264,"target":34963},{"buffer":0,"byteOffset":14000,"byteLength":1056,"target":34962,"byteStride":12},{"buffer":0,"byteOffset":15056,"byteLength":1056,"target":34962,"byteStride":12},{"buffer":0,"byteOffset":16112,"byteLength":704,"target":34962,"byteStride":8},{"buffer":0,"byteOffset":16816,"byteLength":264,"target":34963},{"buffer":0,"byteOffset":17080,"byteLength":1056,"target":34962,"byteStride":12},{"buffer":0,"byteOffset":18136,"byteLength":1056,"target":34962,"byteStride":12},{"buffer":0,"byteOffset":19192,"byteLength":704,"target":34962,"byteStride":8},{"buffer":0,"byteOffset":19896,"byteLength":264,"target":34963},{"buffer":0,"byteOffset":20160,"byteLength":1056,"target":34962,"byteStride":12},{"buffer":0,"byteOffset":21216,"byteLength":1056,"target":34962,"byteStride":12},{"buffer":0,"byteOffset":22272,"byteLength":704,"target":34962,"byteStride":8},{"buffer":0,"byteOffset":22976,"byteLength":264,"target":34963},{"buffer":0,"byteOffset":23240,"byteLength":480,"target":34962,"byteStride":12},{"buffer":0,"byteOffset":23720,"byteLength":480,"target":34962,"byteStride":12},{"buffer":0,"byteOffset":24200,"byteLength":320,"target":34962,"byteStride":8},{"buffer":0,"byteOffset":24520,"byteLength":120,"target":34963},{"buffer":0,"byteOffset":24640,"byteLength":288,"target":34962,"byteStride":12},{"buffer":0,"byteOffset":24928,"byteLength":288,"target":34962,"byteStride":12},{"buffer":0,"byteOffset":25216,"byteLength":192,"target":34962,"byteStride":8},{"buffer":0,"byteOffset":25408,"byteLength":72,"target":34963},{"buffer":0,"byteOffset":25480,"byteLength":288,"target":34962,"byteStride":12},{"buffer":0,"byteOffset":25768,"byteLength":288,"target":34962,"byteStride":12},{"buffer":0,"byteOffset":26056,"byteLength":192,"target":34962,"byteStride":8},{"buffer":0,"byteOffset":26248,"byteLength":72,"target":34963},{"buffer":0,"byteOffset":26320,"byteLength":288,"target":34962,"byteStride":12},{"buffer":0,"byteOffset":26608,"byteLength":288,"target":34962,"byteStride":12},{"buffer":0,"byteOffset":26896,"byteLength":192,"target":34962,"byteStride":8},{"buffer":0,"byteOffset":27088,"byteLength":72,"target":34963},{"buffer":0,"byteOffset":27160,"byteLength":288,"target":34962,"byteStride":12},{"buffer":0,"byteOffset":27448,"byteLength":288,"target":34962,"byteStride":12},{"buffer":0,"byteOffset":27736,"byteLength":192,"target":34962,"byteStride":8},{"buffer":0,"byteOffset":27928,"byteLength":72,"target":34963},{"buffer":0,"byteOffset":28000,"byteLength":3888,"target":34962,"byteStride":12},{"buffer":0,"byteOffset":31888,"byteLength":3888,"target":34962,"byteStride":12},{"buffer":0,"byteOffset":35776,"byteLength":2592,"target":34962,"byteStride":8},{"buffer":0,"byteOffset":38368,"byteLength":864,"target":34963},{"buffer":0,"byteOffset":39232,"byteLength":3888,"target":34962,"byteStride":12},{"buffer":0,"byteOffset":43120,"byteLength":3888,"target":34962,"byteStride":12},{"buffer":0,"byteOffset":47008,"byteLength":2592,"target":34962,"byteStride":8},{"buffer":0,"byteOffset":49600,"byteLength":864,"target":34963},{"buffer":0,"byteOffset":50464,"byteLength":3888,"target":34962,"byteStride":12},{"buffer":0,"byteOffset":54352,"byteLength":3888,"target":34962,"byteStride":12},{"buffer":0,"byteOffset":58240,"byteLength":2592,"target":34962,"byteStride":8},{"buffer":0,"byteOffset":60832,"byteLength":864,"target":34963},{"buffer":0,"byteOffset":61696,"byteLength":3888,"target":34962,"byteStride":12},{"buffer":0,"byteOffset":65584,"byteLength":3888,"target":34962,"byteStride":12},{"buffer":0,"byteOffset":69472,"byteLength":2592,"target":34962,"byteStride":8},{"buffer":0,"byteOffset":72064,"byteLength":864,"target":34963}],"buffers":[{"byteLength":72928,"uri":"data:application/octet-stream;base64,"}],"accessors":[{"bufferView":0,"componentType":5126,"count":312,"max":[0.5,0.4375,1],"min":[-0.5,-0.125,-1],"type":"VEC3"},{"bufferView":1,"componentType":5126,"count":312,"max":[0.9761870503425598,1,1],"min":[-0.9761870503425598,-1,-1],"type":"VEC3"},{"bufferView":2,"componentType":5126,"count":312,"max":[0.5,0.40625],"min":[0,0],"type":"VEC2"},{"bufferView":3,"componentType":5123,"count":468,"max":[311],"min":[0],"type":"SCALAR"},{"bufferView":4,"componentType":5126,"count":88,"max":[0.09375,0.21385374665260315,0.33029285073280334],"min":[-0.09375,-0.11404859274625778,-0.33046820759773254],"type":"VEC3"},{"bufferView":5,"componentType":5126,"count":88,"max":[1,0.8320503234863281,0.9027621746063232],"min":[-1,-1,-0.9055319428443909],"type":"VEC3"},{"bufferView":6,"componentType":5126,"count":88,"max":[0.5373914241790771,0.5859375],"min":[0.11885859072208405,0],"type":"VEC2"},{"bufferView":7,"componentType":5123,"count":132,"max":[87],"min":[0],"type":"SCALAR"},{"bufferView":8,"componentType":5126,"count":88,"max":[0.09375,0.21385374665260315,0.33029285073280334],"min":[-0.09375,-0.11404859274625778,-0.33046820759773254],"type":"VEC3"},{"bufferView":9,"componentType":5126,"count":88,"max":[1,0.8320503234863281,0.9027621746063232],"min":[-1,-1,-0.9055319428443909],"type":"VEC3"},{"bufferView":10,"componentType":5126,"count":88,"max":[0.4682060182094574,0.5859375],"min":[0.0625,0.1015625],"type":"VEC2"},{"bufferView":11,"componentType":5123,"count":132,"max":[87],"min":[0],"type":"SCALAR"},{"bufferView":12,"componentType":5126,"count":88,"max":[0.09375,0.21385374665260315,0.33029285073280334],"min":[-0.09375,-0.11404859274625778,-0.33046820759773254],"type":"VEC3"},{"bufferView":13,"componentType":5126,"count":88,"max":[1,0.8320503234863281,0.9027621746063232],"min":[-1,-1,-0.9055319428443909],"type":"VEC3"},{"bufferView":14,"componentType":5126,"count":88,"max":[0.5703125,0.5390625],"min":[0.0005439915112219751,0.0625],"type":"VEC2"},{"bufferView":15,"componentType":5123,"count":132,"max":[87],"min":[0],"type":"SCALAR"},{"bufferView":16,"componentType":5126,"count":88,"max":[0.09375,0.21385374665260315,0.33029285073280334],"min":[-0.09375,-0.11404859274625778,-0.33046820759773254],"type":"VEC3"},{"bufferView":17,"componentType":5126,"count":88,"max":[1,0.8320503234863281,0.9027621746063232],"min":[-1,-1,-0.9055319428443909],"type":"VEC3"},{"bufferView":18,"componentType":5126,"count":88,"max":[0.5620966553688049,0.5625],"min":[0.09375,0.0625],"type":"VEC2"},{"bufferView":19,"componentType":5123,"count":132,"max":[87],"min":[0],"type":"SCALAR"},{"bufferView":20,"componentType":5126,"count":40,"max":[0.375,0.28125,0.0625],"min":[-0.375,0.21875,-0.25],"type":"VEC3"},{"bufferView":21,"componentType":5126,"count":40,"max":[1,1,0.9486833214759827],"min":[-1,-1,-0.9486833214759827],"type":"VEC3"},{"bufferView":22,"componentType":5126,"count":40,"max":[0.5625,0.3828125],"min":[0,0.0234375],"type":"VEC2"},{"bufferView":23,"componentType":5123,"count":60,"max":[39],"min":[0],"type":"SCALAR"},{"bufferView":24,"componentType":5126,"count":24,"max":[0.0625,0.1875,0.0625],"min":[0,0,-0.125],"type":"VEC3"},{"bufferView":25,"componentType":5126,"count":24,"max":[1,1,0.8320503234863281],"min":[-1,-1,-0.8320503234863281],"type":"VEC3"},{"bufferView":26,"componentType":5126,"count":24,"max":[0.5592197179794312,0.5871894359588623],"min":[0.1015625,0],"type":"VEC2"},{"bufferView":27,"componentType":5123,"count":36,"max":[23],"min":[0],"type":"SCALAR"},{"bufferView":28,"componentType":5126,"count":24,"max":[0.0625,0.1875,0.0625],"min":[0,0,-0.125],"type":"VEC3"},{"bufferView":29,"componentType":5126,"count":24,"max":[1,1,0.8320503234863281],"min":[-1,-1,-0.8320503234863281],"type":"VEC3"},{"bufferView":30,"componentType":5126,"count":24,"max":[0.5592197179794312,0.5871894359588623],"min":[0.171875,0.0703125],"type":"VEC2"},{"bufferView":31,"componentType":5123,"count":36,"max":[23],"min":[0],"type":"SCALAR"},{"bufferView":32,"componentType":5126,"count":24,"max":[0.46875,0.3125,0.125],"min":[-0.46875,0.1875,-0.125],"type":"VEC3"},{"bufferView":33,"componentType":5126,"count":24,"max":[0.9701424837112427,1,1],"min":[-0.9701424837112427,-1,-1],"type":"VEC3"},{"bufferView":34,"componentType":5126,"count":24,"max":[0.2421875,0.484375],"min":[0,0],"type":"VEC2"},{"bufferView":35,"componentType":5123,"count":36,"max":[23],"min":[0],"type":"SCALAR"},{"bufferView":36,"componentType":5126,"count":24,"max":[0.46875,0.3125,0.125],"min":[-0.46875,0.1875,-0.125],"type":"VEC3"},{"bufferView":37,"componentType":5126,"count":24,"max":[0.9701424837112427,1,1],"min":[-0.9701424837112427,-1,-1],"type":"VEC3"},{"bufferView":38,"componentType":5126,"count":24,"max":[0.578125,0.5625],"min":[0,0.234375],"type":"VEC2"},{"bufferView":39,"componentType":5123,"count":36,"max":[23],"min":[0],"type":"SCALAR"},{"bufferView":40,"componentType":5126,"count":324,"max":[0.19521330296993256,0.3125,0.1875],"min":[-0.19521330296993256,0.1875,-0.1875],"type":"VEC3"},{"bufferView":41,"componentType":5126,"count":324,"max":[0.9840472340583801,1,1],"min":[-0.9840472340583801,-1,-1],"type":"VEC3"},{"bufferView":42,"componentType":5126,"count":324,"max":[0.5912109613418579,0.5546875],"min":[0.3828125,0.05859375],"type":"VEC2"},{"bufferView":43,"componentType":5123,"count":432,"max":[323],"min":[0],"type":"SCALAR"},{"bufferView":44,"componentType":5126,"count":324,"max":[0.19521330296993256,0.3125,0.1875],"min":[-0.19521330296993256,0.1875,-0.1875],"type":"VEC3"},{"bufferView":45,"componentType":5126,"count":324,"max":[0.9840472340583801,1,1],"min":[-0.9840472340583801,-1,-1],"type":"VEC3"},{"bufferView":46,"componentType":5126,"count":324,"max":[0.5833984613418579,0.5703125],"min":[0.15625,0.1171875],"type":"VEC2"},{"bufferView":47,"componentType":5123,"count":432,"max":[323],"min":[0],"type":"SCALAR"},{"bufferView":48,"componentType":5126,"count":324,"max":[0.19521330296993256,0.3125,0.1875],"min":[-0.19521330296993256,0.1875,-0.1875],"type":"VEC3"},{"bufferView":49,"componentType":5126,"count":324,"max":[0.9840472340583801,1,1],"min":[-0.9840472340583801,-1,-1],"type":"VEC3"},{"bufferView":50,"componentType":5126,"count":324,"max":[0.5912109613418579,0.5703125],"min":[0.0025390624068677425,0],"type":"VEC2"},{"bufferView":51,"componentType":5123,"count":432,"max":[323],"min":[0],"type":"SCALAR"},{"bufferView":52,"componentType":5126,"count":324,"max":[0.19521330296993256,0.3125,0.1875],"min":[-0.19521330296993256,0.1875,-0.1875],"type":"VEC3"},{"bufferView":53,"componentType":5126,"count":324,"max":[0.9840472340583801,1,1],"min":[-0.9840472340583801,-1,-1],"type":"VEC3"},{"bufferView":54,"componentType":5126,"count":324,"max":[0.5829874873161316,0.56640625],"min":[0.0023609374184161425,0.31640625],"type":"VEC2"},{"bufferView":55,"componentType":5123,"count":432,"max":[323],"min":[0],"type":"SCALAR"}],"materials":[{"pbrMetallicRoughness":{"metallicFactor":0,"roughnessFactor":1,"baseColorTexture":{"index":0}},"alphaMode":"MASK","alphaCutoff":0.05,"doubleSided":true}],"textures":[{"sampler":0,"source":0,"name":"Car_Fast_Texture.png"}],"samplers":[{"magFilter":9728,"minFilter":9728,"wrapS":33071,"wrapT":33071}],"images":[{"mimeType":"image/png","uri":"data:image/png;base64,"}],"meshes":[{"primitives":[{"mode":4,"attributes":{"POSITION":0,"NORMAL":1,"TEXCOORD_0":2},"indices":3,"material":0}]},{"primitives":[{"mode":4,"attributes":{"POSITION":4,"NORMAL":5,"TEXCOORD_0":6},"indices":7,"material":0}]},{"primitives":[{"mode":4,"attributes":{"POSITION":8,"NORMAL":9,"TEXCOORD_0":10},"indices":11,"material":0}]},{"primitives":[{"mode":4,"attributes":{"POSITION":12,"NORMAL":13,"TEXCOORD_0":14},"indices":15,"material":0}]},{"primitives":[{"mode":4,"attributes":{"POSITION":16,"NORMAL":17,"TEXCOORD_0":18},"indices":19,"material":0}]},{"primitives":[{"mode":4,"attributes":{"POSITION":20,"NORMAL":21,"TEXCOORD_0":22},"indices":23,"material":0}]},{"primitives":[{"mode":4,"attributes":{"POSITION":24,"NORMAL":25,"TEXCOORD_0":26},"indices":27,"material":0}]},{"primitives":[{"mode":4,"attributes":{"POSITION":28,"NORMAL":29,"TEXCOORD_0":30},"indices":31,"material":0}]},{"primitives":[{"mode":4,"attributes":{"POSITION":32,"NORMAL":33,"TEXCOORD_0":34},"indices":35,"material":0}]},{"primitives":[{"mode":4,"attributes":{"POSITION":36,"NORMAL":37,"TEXCOORD_0":38},"indices":39,"material":0}]},{"primitives":[{"mode":4,"attributes":{"POSITION":40,"NORMAL":41,"TEXCOORD_0":42},"indices":43,"material":0}]},{"primitives":[{"mode":4,"attributes":{"POSITION":44,"NORMAL":45,"TEXCOORD_0":46},"indices":47,"material":0}]},{"primitives":[{"mode":4,"attributes":{"POSITION":48,"NORMAL":49,"TEXCOORD_0":50},"indices":51,"material":0}]},{"primitives":[{"mode":4,"attributes":{"POSITION":52,"NORMAL":53,"TEXCOORD_0":54},"indices":55,"material":0}]}]}