{"asset":{"version":"2.0","generator":"Blockbench 4.11.2 glTF exporter"},"scenes":[{"nodes":[7],"name":"blockbench_export"}],"scene":0,"nodes":[{"translation":[0,0.03749999999999998,7.105427357601002e-15],"name":"Road","mesh":0},{"rotation":[0.7071067864549043,-0.7071067759181907,-4.710277440079799e-16,4.953882193527365e-15],"translation":[7.8125,4.59375,35.59375000000001],"name":"Sign","mesh":1},{"rotation":[0,0.7071067811865475,0,0.7071067811865476],"translation":[7.140625000000002,4.71875,7.105427357601002e-15],"name":"Sign","mesh":2},{"rotation":[0.7071067864549043,-0.7071067759181907,-4.710277440079799e-16,4.953882193527365e-15],"translation":[7.8125,4.59375,12.531249999999998],"name":"Sign","mesh":3},{"rotation":[0,0.7071067811865475,0,0.7071067811865476],"translation":[-13.3125,19.03125,12.3125],"name":"Sign","mesh":4},{"translation":[0,8.0625,0],"name":"Building","mesh":5},{"rotation":[0,-0.7071067811865475,0,0.7071067811865476],"translation":[0,-0.21874999999999997,0],"name":"Building2","children":[0,1,2,3,4,5]},{"children":[6]}],"bufferViews":[{"buffer":0,"byteOffset":0,"byteLength":288,"target":34962,"byteStride":12},{"buffer":0,"byteOffset":288,"byteLength":288,"target":34962,"byteStride":12},{"buffer":0,"byteOffset":576,"byteLength":192,"target":34962,"byteStride":8},{"buffer":0,"byteOffset":768,"byteLength":72,"target":34963},{"buffer":0,"byteOffset":840,"byteLength":1632,"target":34962,"byteStride":12},{"buffer":0,"byteOffset":2472,"byteLength":1632,"target":34962,"byteStride":12},{"buffer":0,"byteOffset":4104,"byteLength":1088,"target":34962,"byteStride":8},{"buffer":0,"byteOffset":5192,"byteLength":408,"target":34963},{"buffer":0,"byteOffset":5600,"byteLength":672,"target":34962,"byteStride":12},{"buffer":0,"byteOffset":6272,"byteLength":672,"target":34962,"byteStride":12},{"buffer":0,"byteOffset":6944,"byteLength":448,"target":34962,"byteStride":8},{"buffer":0,"byteOffset":7392,"byteLength":168,"target":34963},{"buffer":0,"byteOffset":7560,"byteLength":1632,"target":34962,"byteStride":12},{"buffer":0,"byteOffset":9192,"byteLength":1632,"target":34962,"byteStride":12},{"buffer":0,"byteOffset":10824,"byteLength":1088,"target":34962,"byteStride":8},{"buffer":0,"byteOffset":11912,"byteLength":408,"target":34963},{"buffer":0,"byteOffset":12320,"byteLength":1824,"target":34962,"byteStride":12},{"buffer":0,"byteOffset":14144,"byteLength":1824,"target":34962,"byteStride":12},{"buffer":0,"byteOffset":15968,"byteLength":1216,"target":34962,"byteStride":8},{"buffer":0,"byteOffset":17184,"byteLength":456,"target":34963},{"buffer":0,"byteOffset":17640,"byteLength":24864,"target":34962,"byteStride":12},{"buffer":0,"byteOffset":42504,"byteLength":24864,"target":34962,"byteStride":12},{"buffer":0,"byteOffset":67368,"byteLength":16576,"target":34962,"byteStride":8},{"buffer":0,"byteOffset":83944,"byteLength":6216,"target":34963}],"buffers":[{"byteLength":90160,"uri":"data:application/octet-stream;base64,"}],"accessors":[{"bufferView":0,"componentType":5126,"count":24,"max":[8,0.3125,16],"min":[-8,0.1875,-16],"type":"VEC3"},{"bufferView":1,"componentType":5126,"count":24,"max":[1,1,1],"min":[-1,-1,-1],"type":"VEC3"},{"bufferView":2,"componentType":5126,"count":24,"max":[1.001953125,1.001953125],"min":[0,0],"type":"VEC2"},{"bufferView":3,"componentType":5123,"count":36,"max":[23],"min":[0],"type":"SCALAR"},{"bufferView":4,"componentType":5126,"count":136,"max":[2.125,1.82387375831604,24.3125],"min":[-2.125,-0.875,23.8125],"type":"VEC3"},{"bufferView":5,"componentType":5126,"count":136,"max":[1,1,1],"min":[-1,-1,-1],"type":"VEC3"},{"bufferView":6,"componentType":5126,"count":136,"max":[0.849609375,0.771484375],"min":[0.029296875,0.23046875],"type":"VEC2"},{"bufferView":7,"componentType":5123,"count":204,"max":[135],"min":[0],"type":"SCALAR"},{"bufferView":8,"componentType":5126,"count":56,"max":[3.1875,1.46875,0.171875],"min":[-3.1875,-1.46875,-0.328125],"type":"VEC3"},{"bufferView":9,"componentType":5126,"count":56,"max":[1,1,1],"min":[-1,-1,-1],"type":"VEC3"},{"bufferView":10,"componentType":5126,"count":56,"max":[0.833984375,0.80859375],"min":[0.029296875,0.044921875],"type":"VEC2"},{"bufferView":11,"componentType":5123,"count":84,"max":[55],"min":[0],"type":"SCALAR"},{"bufferView":12,"componentType":5126,"count":136,"max":[2.125,1.82387375831604,24.3125],"min":[-2.125,-0.875,23.8125],"type":"VEC3"},{"bufferView":13,"componentType":5126,"count":136,"max":[1,1,1],"min":[-1,-1,-1],"type":"VEC3"},{"bufferView":14,"componentType":5126,"count":136,"max":[0.73828125,0.771484375],"min":[0.16015625,0.240234375],"type":"VEC2"},{"bufferView":15,"componentType":5123,"count":204,"max":[135],"min":[0],"type":"SCALAR"},{"bufferView":16,"componentType":5126,"count":152,"max":[21.6875,2.28125,19.3125],"min":[13.6875,-3.2320199012756348,15.112244606018066],"type":"VEC3"},{"bufferView":17,"componentType":5126,"count":152,"max":[1,1,1],"min":[-1,-1,-1],"type":"VEC3"},{"bufferView":18,"componentType":5126,"count":152,"max":[0.849609375,0.875],"min":[0,0.060546875],"type":"VEC2"},{"bufferView":19,"componentType":5123,"count":228,"max":[151],"min":[0],"type":"SCALAR"},{"bufferView":20,"componentType":5126,"count":2072,"max":[6.75,16.318750381469727,14.65625],"min":[-6.75,-7.775000095367432,-14.65625],"type":"VEC3"},{"bufferView":21,"componentType":5126,"count":2072,"max":[1,1,1],"min":[-1,-1,-1],"type":"VEC3"},{"bufferView":22,"componentType":5126,"count":2072,"max":[0.76171875,0.623046875],"min":[0,0],"type":"VEC2"},{"bufferView":23,"componentType":5123,"count":3108,"max":[2071],"min":[0],"type":"SCALAR"}],"materials":[{"pbrMetallicRoughness":{"metallicFactor":0,"roughnessFactor":1,"baseColorTexture":{"index":0}},"alphaMode":"MASK","alphaCutoff":0.05,"doubleSided":true}],"textures":[{"sampler":0,"source":0,"name":"Building_1_2x1.png"}],"samplers":[{"magFilter":9728,"minFilter":9728,"wrapS":33071,"wrapT":33071}],"images":[{"mimeType":"image/png","uri":"data:image/png;base64,"}],"meshes":[{"primitives":[{"mode":4,"attributes":{"POSITION":0,"NORMAL":1,"TEXCOORD_0":2},"indices":3,"material":0}]},{"primitives":[{"mode":4,"attributes":{"POSITION":4,"NORMAL":5,"TEXCOORD_0":6},"indices":7,"material":0}]},{"primitives":[{"mode":4,"attributes":{"POSITION":8,"NORMAL":9,"TEXCOORD_0":10},"indices":11,"material":0}]},{"primitives":[{"mode":4,"attributes":{"POSITION":12,"NORMAL":13,"TEXCOORD_0":14},"indices":15,"material":0}]},{"primitives":[{"mode":4,"attributes":{"POSITION":16,"NORMAL":17,"TEXCOORD_0":18},"indices":19,"material":0}]},{"primitives":[{"mode":4,"attributes":{"POSITION":20,"NORMAL":21,"TEXCOORD_0":22},"indices":23,"material":0}]}]}