{"asset":{"version":"2.0","generator":"Blockbench 4.11.2 glTF exporter"},"scenes":[{"nodes":[19],"name":"blockbench_export"}],"scene":0,"nodes":[{"rotation":[-1,-2.832769448823989e-16,-6.123233995736733e-17,1.1714553645825241e-15],"translation":[0,0.1700975529100529,0.41837962962962977],"name":"Middle","mesh":0},{"rotation":[1,3.749399456654653e-33,6.123233995736781e-17,6.123233995736766e-17],"translation":[1.2812500000000004,0.38884755291005335,0.11212962962962977],"name":"Thing1","mesh":1},{"rotation":[1,-3.749399456654653e-33,-6.123233995736781e-17,6.123233995736766e-17],"translation":[-1.2812500000000004,0.38884755291005335,0.11212962962962977],"name":"Thing2","mesh":2},{"translation":[0,-0.2674024470899471,-0.6441203703703703],"name":"Top","mesh":3},{"translation":[0,-0.2674024470899471,-0.6441203703703703],"name":"LeftWing1","mesh":4},{"translation":[-0.21874999999999997,-0.2674024470899471,-0.6441203703703703],"name":"LeftWing2","mesh":5},{"translation":[-0.8312499999999999,-0.19865244708994712,-0.01912037037037024],"name":"LeftBooster","mesh":6},{"translation":[-0.8125,-0.2049024470899471,0.3371296296296297],"name":"LeftConnector","mesh":7},{"rotation":[0,0.19509032201612825,0,0.9807852804032304],"translation":[-0.8125,-0.2049024470899471,-0.3753703703703704],"name":"LeftConnector2","mesh":8},{"translation":[0,-0.2674024470899471,-0.6441203703703703],"name":"RightWing1","mesh":9},{"translation":[0.21874999999999997,-0.2674024470899471,-0.6441203703703703],"name":"RightWing2","mesh":10},{"translation":[0.8312499999999999,-0.19865244708994712,-0.01912037037037024],"name":"RightBooster","mesh":11},{"translation":[0.8125,-0.2049024470899471,0.3371296296296297],"name":"RightConnector","mesh":12},{"translation":[0,-0.8924024470899471,-0.5816203703703703],"name":"Front","mesh":13},{"translation":[-0.25,-0.09865244708994692,-0.33162037037037023],"name":"Red Light","mesh":14},{"translation":[0.25,-0.09865244708994692,-0.33162037037037023],"name":"Blue Light","mesh":15},{"translation":[0,-0.09865244708994692,-0.33162037037037023],"name":"Light Fixture","mesh":16},{"rotation":[0,-0.19509032201612825,0,0.9807852804032304],"translation":[0.8125,-0.2049024470899471,-0.3753703703703704],"name":"RightConnector2","mesh":17},{"translation":[0,0.7674024470899471,-0.04337962962962976],"name":"cuboid","children":[0,1,2,3,4,5,6,7,8,9,10,11,12,13,14,15,16,17]},{"children":[18]}],"bufferViews":[{"buffer":0,"byteOffset":0,"byteLength":480,"target":34962,"byteStride":12},{"buffer":0,"byteOffset":480,"byteLength":480,"target":34962,"byteStride":12},{"buffer":0,"byteOffset":960,"byteLength":320,"target":34962,"byteStride":8},{"buffer":0,"byteOffset":1280,"byteLength":120,"target":34963},{"buffer":0,"byteOffset":1400,"byteLength":480,"target":34962,"byteStride":12},{"buffer":0,"byteOffset":1880,"byteLength":480,"target":34962,"byteStride":12},{"buffer":0,"byteOffset":2360,"byteLength":320,"target":34962,"byteStride":8},{"buffer":0,"byteOffset":2680,"byteLength":120,"target":34963},{"buffer":0,"byteOffset":2800,"byteLength":480,"target":34962,"byteStride":12},{"buffer":0,"byteOffset":3280,"byteLength":480,"target":34962,"byteStride":12},{"buffer":0,"byteOffset":3760,"byteLength":320,"target":34962,"byteStride":8},{"buffer":0,"byteOffset":4080,"byteLength":120,"target":34963},{"buffer":0,"byteOffset":4200,"byteLength":1056,"target":34962,"byteStride":12},{"buffer":0,"byteOffset":5256,"byteLength":1056,"target":34962,"byteStride":12},{"buffer":0,"byteOffset":6312,"byteLength":704,"target":34962,"byteStride":8},{"buffer":0,"byteOffset":7016,"byteLength":264,"target":34963},{"buffer":0,"byteOffset":7280,"byteLength":912,"target":34962,"byteStride":12},{"buffer":0,"byteOffset":8192,"byteLength":912,"target":34962,"byteStride":12},{"buffer":0,"byteOffset":9104,"byteLength":608,"target":34962,"byteStride":8},{"buffer":0,"byteOffset":9712,"byteLength":216,"target":34963},{"buffer":0,"byteOffset":9928,"byteLength":1056,"target":34962,"byteStride":12},{"buffer":0,"byteOffset":10984,"byteLength":1056,"target":34962,"byteStride":12},{"buffer":0,"byteOffset":12040,"byteLength":704,"target":34962,"byteStride":8},{"buffer":0,"byteOffset":12744,"byteLength":264,"target":34963},{"buffer":0,"byteOffset":13008,"byteLength":2112,"target":34962,"byteStride":12},{"buffer":0,"byteOffset":15120,"byteLength":2112,"target":34962,"byteStride":12},{"buffer":0,"byteOffset":17232,"byteLength":1408,"target":34962,"byteStride":8},{"buffer":0,"byteOffset":18640,"byteLength":480,"target":34963},{"buffer":0,"byteOffset":19120,"byteLength":288,"target":34962,"byteStride":12},{"buffer":0,"byteOffset":19408,"byteLength":288,"target":34962,"byteStride":12},{"buffer":0,"byteOffset":19696,"byteLength":192,"target":34962,"byteStride":8},{"buffer":0,"byteOffset":19888,"byteLength":72,"target":34963},{"buffer":0,"byteOffset":19960,"byteLength":288,"target":34962,"byteStride":12},{"buffer":0,"byteOffset":20248,"byteLength":288,"target":34962,"byteStride":12},{"buffer":0,"byteOffset":20536,"byteLength":192,"target":34962,"byteStride":8},{"buffer":0,"byteOffset":20728,"byteLength":72,"target":34963},{"buffer":0,"byteOffset":20800,"byteLength":912,"target":34962,"byteStride":12},{"buffer":0,"byteOffset":21712,"byteLength":912,"target":34962,"byteStride":12},{"buffer":0,"byteOffset":22624,"byteLength":608,"target":34962,"byteStride":8},{"buffer":0,"byteOffset":23232,"byteLength":216,"target":34963},{"buffer":0,"byteOffset":23448,"byteLength":1056,"target":34962,"byteStride":12},{"buffer":0,"byteOffset":24504,"byteLength":1056,"target":34962,"byteStride":12},{"buffer":0,"byteOffset":25560,"byteLength":704,"target":34962,"byteStride":8},{"buffer":0,"byteOffset":26264,"byteLength":264,"target":34963},{"buffer":0,"byteOffset":26528,"byteLength":2112,"target":34962,"byteStride":12},{"buffer":0,"byteOffset":28640,"byteLength":2112,"target":34962,"byteStride":12},{"buffer":0,"byteOffset":30752,"byteLength":1408,"target":34962,"byteStride":8},{"buffer":0,"byteOffset":32160,"byteLength":480,"target":34963},{"buffer":0,"byteOffset":32640,"byteLength":288,"target":34962,"byteStride":12},{"buffer":0,"byteOffset":32928,"byteLength":288,"target":34962,"byteStride":12},{"buffer":0,"byteOffset":33216,"byteLength":192,"target":34962,"byteStride":8},{"buffer":0,"byteOffset":33408,"byteLength":72,"target":34963},{"buffer":0,"byteOffset":33480,"byteLength":480,"target":34962,"byteStride":12},{"buffer":0,"byteOffset":33960,"byteLength":480,"target":34962,"byteStride":12},{"buffer":0,"byteOffset":34440,"byteLength":320,"target":34962,"byteStride":8},{"buffer":0,"byteOffset":34760,"byteLength":120,"target":34963},{"buffer":0,"byteOffset":34880,"byteLength":288,"target":34962,"byteStride":12},{"buffer":0,"byteOffset":35168,"byteLength":288,"target":34962,"byteStride":12},{"buffer":0,"byteOffset":35456,"byteLength":192,"target":34962,"byteStride":8},{"buffer":0,"byteOffset":35648,"byteLength":72,"target":34963},{"buffer":0,"byteOffset":35720,"byteLength":288,"target":34962,"byteStride":12},{"buffer":0,"byteOffset":36008,"byteLength":288,"target":34962,"byteStride":12},{"buffer":0,"byteOffset":36296,"byteLength":192,"target":34962,"byteStride":8},{"buffer":0,"byteOffset":36488,"byteLength":72,"target":34963},{"buffer":0,"byteOffset":36560,"byteLength":288,"target":34962,"byteStride":12},{"buffer":0,"byteOffset":36848,"byteLength":288,"target":34962,"byteStride":12},{"buffer":0,"byteOffset":37136,"byteLength":192,"target":34962,"byteStride":8},{"buffer":0,"byteOffset":37328,"byteLength":72,"target":34963},{"buffer":0,"byteOffset":37400,"byteLength":288,"target":34962,"byteStride":12},{"buffer":0,"byteOffset":37688,"byteLength":288,"target":34962,"byteStride":12},{"buffer":0,"byteOffset":37976,"byteLength":192,"target":34962,"byteStride":8},{"buffer":0,"byteOffset":38168,"byteLength":72,"target":34963}],"buffers":[{"byteLength":38240,"uri":"data:application/octet-stream;base64,"}],"accessors":[{"bufferView":0,"componentType":5126,"count":40,"max":[0.34375,0.8125,0.5],"min":[-0.34375,0.1875,-0.5625],"type":"VEC3"},{"bufferView":1,"componentType":5126,"count":40,"max":[1,1,1],"min":[-1,-1,-1],"type":"VEC3"},{"bufferView":2,"componentType":5126,"count":40,"max":[0.6015625,0.4765625],"min":[0.0034214842598885298,0.046875],"type":"VEC2"},{"bufferView":3,"componentType":5123,"count":60,"max":[39],"min":[0],"type":"SCALAR"},{"bufferView":4,"componentType":5126,"count":40,"max":[0.125,0.625,0.21875],"min":[-0.125,0.375,-0.21875],"type":"VEC3"},{"bufferView":5,"componentType":5126,"count":40,"max":[1,1,1],"min":[-1,-1,-1],"type":"VEC3"},{"bufferView":6,"componentType":5126,"count":40,"max":[0.625,0.6015625],"min":[0,0],"type":"VEC2"},{"bufferView":7,"componentType":5123,"count":60,"max":[39],"min":[0],"type":"SCALAR"},{"bufferView":8,"componentType":5126,"count":40,"max":[0.125,0.625,0.21875],"min":[-0.125,0.375,-0.21875],"type":"VEC3"},{"bufferView":9,"componentType":5126,"count":40,"max":[1,1,1],"min":[-1,-1,-1],"type":"VEC3"},{"bufferView":10,"componentType":5126,"count":40,"max":[0.640625,0.6135241985321045],"min":[0.09375,0],"type":"VEC2"},{"bufferView":11,"componentType":5123,"count":60,"max":[39],"min":[0],"type":"SCALAR"},{"bufferView":12,"componentType":5126,"count":88,"max":[0.5,0.625,2.375],"min":[-0.5,0.25,0.0625],"type":"VEC3"},{"bufferView":13,"componentType":5126,"count":88,"max":[1,1,1],"min":[-1,-1,-1],"type":"VEC3"},{"bufferView":14,"componentType":5126,"count":88,"max":[0.625,0.53125],"min":[0,0],"type":"VEC2"},{"bufferView":15,"componentType":5123,"count":132,"max":[87],"min":[0],"type":"SCALAR"},{"bufferView":16,"componentType":5126,"count":76,"max":[-0.5,0.375,1.0625],"min":[-0.8125,0.25,0.0625],"type":"VEC3"},{"bufferView":17,"componentType":5126,"count":76,"max":[1,1,0.9950371980667114],"min":[-1,-1,-0.9191450476646423],"type":"VEC3"},{"bufferView":18,"componentType":5126,"count":76,"max":[0.65625,0.6328125],"min":[0,0.0625],"type":"VEC2"},{"bufferView":19,"componentType":5123,"count":108,"max":[75],"min":[0],"type":"SCALAR"},{"bufferView":20,"componentType":5126,"count":88,"max":[-0.71875,0.375,1.1875],"min":[-1.28125,0.25,0.26249998807907104],"type":"VEC3"},{"bufferView":21,"componentType":5126,"count":88,"max":[1,1,0.986393928527832],"min":[-1,-1,-0.9023038148880005],"type":"VEC3"},{"bufferView":22,"componentType":5126,"count":88,"max":[0.65625,0.6328125],"min":[0.109375,0.0625],"type":"VEC2"},{"bufferView":23,"componentType":5123,"count":132,"max":[87],"min":[0],"type":"SCALAR"},{"bufferView":24,"componentType":5126,"count":176,"max":[0.20624999701976776,0.375,0.20624999701976776],"min":[-0.20624999701976776,0.15625,-0.20624999701976776],"type":"VEC3"},{"bufferView":25,"componentType":5126,"count":176,"max":[1,1,1],"min":[-1,-1,-1],"type":"VEC3"},{"bufferView":26,"componentType":5126,"count":176,"max":[0.65625,0.65625],"min":[0.078125,0],"type":"VEC2"},{"bufferView":27,"componentType":5123,"count":240,"max":[175],"min":[0],"type":"SCALAR"},{"bufferView":28,"componentType":5126,"count":24,"max":[0.15625,0.28125,0.03125],"min":[-0.15625,0.21875,-0.03125],"type":"VEC3"},{"bufferView":29,"componentType":5126,"count":24,"max":[1,1,1],"min":[-1,-1,-1],"type":"VEC3"},{"bufferView":30,"componentType":5126,"count":24,"max":[0.6796875,0.1796875],"min":[0.0390625,0],"type":"VEC2"},{"bufferView":31,"componentType":5123,"count":36,"max":[23],"min":[0],"type":"SCALAR"},{"bufferView":32,"componentType":5126,"count":24,"max":[0.15625,0.28125,0.03125],"min":[-0.15625,0.21875,-0.03125],"type":"VEC3"},{"bufferView":33,"componentType":5126,"count":24,"max":[1,1,1],"min":[-1,-1,-1],"type":"VEC3"},{"bufferView":34,"componentType":5126,"count":24,"max":[0.6796875,0.6484375],"min":[0,0.0859375],"type":"VEC2"},{"bufferView":35,"componentType":5123,"count":36,"max":[23],"min":[0],"type":"SCALAR"},{"bufferView":36,"componentType":5126,"count":76,"max":[0.8125,0.375,1.0625],"min":[0.5,0.25,0.0625],"type":"VEC3"},{"bufferView":37,"componentType":5126,"count":76,"max":[1,1,0.9950371980667114],"min":[-1,-1,-0.9191450476646423],"type":"VEC3"},{"bufferView":38,"componentType":5126,"count":76,"max":[0.6640625,0.65625],"min":[0.3046875,0],"type":"VEC2"},{"bufferView":39,"componentType":5123,"count":108,"max":[75],"min":[0],"type":"SCALAR"},{"bufferView":40,"componentType":5126,"count":88,"max":[1.28125,0.375,1.1875],"min":[0.71875,0.25,0.26249998807907104],"type":"VEC3"},{"bufferView":41,"componentType":5126,"count":88,"max":[1,1,0.986393928527832],"min":[-1,-1,-0.9023038148880005],"type":"VEC3"},{"bufferView":42,"componentType":5126,"count":88,"max":[0.6640625,0.65625],"min":[0,0.0234375],"type":"VEC2"},{"bufferView":43,"componentType":5123,"count":132,"max":[87],"min":[0],"type":"SCALAR"},{"bufferView":44,"componentType":5126,"count":176,"max":[0.20624999701976776,0.375,0.20624999701976776],"min":[-0.20624999701976776,0.15625,-0.20624999701976776],"type":"VEC3"},{"bufferView":45,"componentType":5126,"count":176,"max":[1,1,1],"min":[-1,-1,-1],"type":"VEC3"},{"bufferView":46,"componentType":5126,"count":176,"max":[0.65625,0.6640625],"min":[0,0.33125001192092896],"type":"VEC2"},{"bufferView":47,"componentType":5123,"count":240,"max":[175],"min":[0],"type":"SCALAR"},{"bufferView":48,"componentType":5126,"count":24,"max":[0.15625,0.28125,0.03125],"min":[-0.15625,0.21875,-0.03125],"type":"VEC3"},{"bufferView":49,"componentType":5126,"count":24,"max":[1,1,1],"min":[-1,-1,-1],"type":"VEC3"},{"bufferView":50,"componentType":5126,"count":24,"max":[0.6796875,0.6484375],"min":[0.1328125,0.171875],"type":"VEC2"},{"bufferView":51,"componentType":5123,"count":36,"max":[23],"min":[0],"type":"SCALAR"},{"bufferView":52,"componentType":5126,"count":40,"max":[0.4375,0.875,0.5],"min":[-0.4375,0.125,-0.5],"type":"VEC3"},{"bufferView":53,"componentType":5126,"count":40,"max":[1,1,1],"min":[-1,-1,-1],"type":"VEC3"},{"bufferView":54,"componentType":5126,"count":40,"max":[0.4921875,0.4921875],"min":[0,0],"type":"VEC2"},{"bufferView":55,"componentType":5123,"count":60,"max":[39],"min":[0],"type":"SCALAR"},{"bufferView":56,"componentType":5126,"count":24,"max":[0.09375,0.3125,0.09375],"min":[-0.09375,0.1875,-0.09375],"type":"VEC3"},{"bufferView":57,"componentType":5126,"count":24,"max":[1,1,1],"min":[-1,-1,-1],"type":"VEC3"},{"bufferView":58,"componentType":5126,"count":24,"max":[0.65625,0.6484375],"min":[0.0625,0.125],"type":"VEC2"},{"bufferView":59,"componentType":5123,"count":36,"max":[23],"min":[0],"type":"SCALAR"},{"bufferView":60,"componentType":5126,"count":24,"max":[0.09375,0.3125,0.09375],"min":[-0.09375,0.1875,-0.09375],"type":"VEC3"},{"bufferView":61,"componentType":5126,"count":24,"max":[1,1,1],"min":[-1,-1,-1],"type":"VEC3"},{"bufferView":62,"componentType":5126,"count":24,"max":[0.6484375,0.640625],"min":[0.03125,0.171875],"type":"VEC2"},{"bufferView":63,"componentType":5123,"count":36,"max":[23],"min":[0],"type":"SCALAR"},{"bufferView":64,"componentType":5126,"count":24,"max":[0.15625,0.3125,0.09375],"min":[-0.15625,0.1875,-0.09375],"type":"VEC3"},{"bufferView":65,"componentType":5126,"count":24,"max":[1,1,1],"min":[-1,-1,-1],"type":"VEC3"},{"bufferView":66,"componentType":5126,"count":24,"max":[0.625,0.609375],"min":[0,0.2734375],"type":"VEC2"},{"bufferView":67,"componentType":5123,"count":36,"max":[23],"min":[0],"type":"SCALAR"},{"bufferView":68,"componentType":5126,"count":24,"max":[0.15625,0.28125,0.03125],"min":[-0.15625,0.21875,-0.03125],"type":"VEC3"},{"bufferView":69,"componentType":5126,"count":24,"max":[1,1,1],"min":[-1,-1,-1],"type":"VEC3"},{"bufferView":70,"componentType":5126,"count":24,"max":[0.6796875,0.6484375],"min":[0.15625,0.234375],"type":"VEC2"},{"bufferView":71,"componentType":5123,"count":36,"max":[23],"min":[0],"type":"SCALAR"}],"materials":[{"pbrMetallicRoughness":{"metallicFactor":0,"roughnessFactor":1,"baseColorTexture":{"index":0}},"alphaMode":"MASK","alphaCutoff":0.05,"doubleSided":true}],"textures":[{"sampler":0,"source":0,"name":"Cyberpunk_Hovercar_Texture"}],"samplers":[{"magFilter":9728,"minFilter":9728,"wrapS":33071,"wrapT":33071}],"images":[{"mimeType":"image/png","uri":"data:image/png;base64,"}],"meshes":[{"primitives":[{"mode":4,"attributes":{"POSITION":0,"NORMAL":1,"TEXCOORD_0":2},"indices":3,"material":0}]},{"primitives":[{"mode":4,"attributes":{"POSITION":4,"NORMAL":5,"TEXCOORD_0":6},"indices":7,"material":0}]},{"primitives":[{"mode":4,"attributes":{"POSITION":8,"NORMAL":9,"TEXCOORD_0":10},"indices":11,"material":0}]},{"primitives":[{"mode":4,"attributes":{"POSITION":12,"NORMAL":13,"TEXCOORD_0":14},"indices":15,"material":0}]},{"primitives":[{"mode":4,"attributes":{"POSITION":16,"NORMAL":17,"TEXCOORD_0":18},"indices":19,"material":0}]},{"primitives":[{"mode":4,"attributes":{"POSITION":20,"NORMAL":21,"TEXCOORD_0":22},"indices":23,"material":0}]},{"primitives":[{"mode":4,"attributes":{"POSITION":24,"NORMAL":25,"TEXCOORD_0":26},"indices":27,"material":0}]},{"primitives":[{"mode":4,"attributes":{"POSITION":28,"NORMAL":29,"TEXCOORD_0":30},"indices":31,"material":0}]},{"primitives":[{"mode":4,"attributes":{"POSITION":32,"NORMAL":33,"TEXCOORD_0":34},"indices":35,"material":0}]},{"primitives":[{"mode":4,"attributes":{"POSITION":36,"NORMAL":37,"TEXCOORD_0":38},"indices":39,"material":0}]},{"primitives":[{"mode":4,"attributes":{"POSITION":40,"NORMAL":41,"TEXCOORD_0":42},"indices":43,"material":0}]},{"primitives":[{"mode":4,"attributes":{"POSITION":44,"NORMAL":45,"TEXCOORD_0":46},"indices":47,"material":0}]},{"primitives":[{"mode":4,"attributes":{"POSITION":48,"NORMAL":49,"TEXCOORD_0":50},"indices":51,"material":0}]},{"primitives":[{"mode":4,"attributes":{"POSITION":52,"NORMAL":53,"TEXCOORD_0":54},"indices":55,"material":0}]},{"primitives":[{"mode":4,"attributes":{"POSITION":56,"NORMAL":57,"TEXCOORD_0":58},"indices":59,"material":0}]},{"primitives":[{"mode":4,"attributes":{"POSITION":60,"NORMAL":61,"TEXCOORD_0":62},"indices":63,"material":0}]},{"primitives":[{"mode":4,"attributes":{"POSITION":64,"NORMAL":65,"TEXCOORD_0":66},"indices":67,"material":0}]},{"primitives":[{"mode":4,"attributes":{"POSITION":68,"NORMAL":69,"TEXCOORD_0":70},"indices":71,"material":0}]}]}