{"asset":{"version":"2.0","generator":"Blockbench 4.11.2 glTF exporter"},"scenes":[{"nodes":[3],"name":"blockbench_export"}],"scene":0,"nodes":[{"rotation":[0.5000000052683549,-0.4999999947316451,-0.4999999947316427,0.5000000052683573],"translation":[6.25,13.5,0],"name":"Sign","mesh":0},{"translation":[0,10.4375,0],"name":"cuboid","mesh":1},{"name":"bone","children":[0,1]},{"children":[2]}],"bufferViews":[{"buffer":0,"byteOffset":0,"byteLength":624,"target":34962,"byteStride":12},{"buffer":0,"byteOffset":624,"byteLength":624,"target":34962,"byteStride":12},{"buffer":0,"byteOffset":1248,"byteLength":416,"target":34962,"byteStride":8},{"buffer":0,"byteOffset":1664,"byteLength":156,"target":34963},{"buffer":0,"byteOffset":1820,"byteLength":7968,"target":34962,"byteStride":12},{"buffer":0,"byteOffset":9788,"byteLength":7968,"target":34962,"byteStride":12},{"buffer":0,"byteOffset":17756,"byteLength":5312,"target":34962,"byteStride":8},{"buffer":0,"byteOffset":23068,"byteLength":1992,"target":34963}],"buffers":[{"byteLength":25060,"uri":"data:application/octet-stream;base64,"}],"accessors":[{"bufferView":0,"componentType":5126,"count":52,"max":[7.6875,2.71875,0.4375],"min":[-7.8125,-2.71875,-0.0625],"type":"VEC3"},{"bufferView":1,"componentType":5126,"count":52,"max":[1,1,6.322028411887004e-8],"min":[-1,-1,-1],"type":"VEC3"},{"bufferView":2,"componentType":5126,"count":52,"max":[0.408203125,0.513671875],"min":[0.07421875,0],"type":"VEC2"},{"bufferView":3,"componentType":5123,"count":78,"max":[51],"min":[0],"type":"SCALAR"},{"bufferView":4,"componentType":5126,"count":664,"max":[6.3125,16.75,6.5],"min":[-6.1875,-10.4375,-6.5],"type":"VEC3"},{"bufferView":5,"componentType":5126,"count":664,"max":[1,1,1],"min":[-1,-1,-1],"type":"VEC3"},{"bufferView":6,"componentType":5126,"count":664,"max":[0.5011199712753296,0.619140625],"min":[0,0],"type":"VEC2"},{"bufferView":7,"componentType":5123,"count":996,"max":[663],"min":[0],"type":"SCALAR"}],"materials":[{"pbrMetallicRoughness":{"metallicFactor":0,"roughnessFactor":1,"baseColorTexture":{"index":0}},"alphaMode":"MASK","alphaCutoff":0.05,"doubleSided":true}],"textures":[{"sampler":0,"source":0,"name":"Building_4_1x1_Texture.png"}],"samplers":[{"magFilter":9728,"minFilter":9728,"wrapS":33071,"wrapT":33071}],"images":[{"mimeType":"image/png","uri":"data:image/png;base64,"}],"meshes":[{"primitives":[{"mode":4,"attributes":{"POSITION":0,"NORMAL":1,"TEXCOORD_0":2},"indices":3,"material":0}]},{"primitives":[{"mode":4,"attributes":{"POSITION":4,"NORMAL":5,"TEXCOORD_0":6},"indices":7,"material":0}]}]}