{"asset":{"version":"2.0","generator":"Blockbench 4.11.2 glTF exporter"},"scenes":[{"nodes":[1],"name":"blockbench_export"}],"scene":0,"nodes":[{"translation":[-2.1587669923266933e-17,0,0],"name":"cylinder","mesh":0},{"children":[0]}],"bufferViews":[{"buffer":0,"byteOffset":0,"byteLength":2112,"target":34962,"byteStride":12},{"buffer":0,"byteOffset":2112,"byteLength":2112,"target":34962,"byteStride":12},{"buffer":0,"byteOffset":4224,"byteLength":1408,"target":34962,"byteStride":8},{"buffer":0,"byteOffset":5632,"byteLength":516,"target":34963}],"buffers":[{"byteLength":6148,"uri":"data:application/octet-stream;base64,"}],"accessors":[{"bufferView":0,"componentType":5126,"count":176,"max":[1.5625,4.061110973358154,0.1875],"min":[-1.5625,-0.0013888889225199819,-0.1875],"type":"VEC3"},{"bufferView":1,"componentType":5126,"count":176,"max":[1,1,1],"min":[-1,-1,-1],"type":"VEC3"},{"bufferView":2,"componentType":5126,"count":176,"max":[0.4609375,0.5703125],"min":[0,0],"type":"VEC2"},{"bufferView":3,"componentType":5123,"count":258,"max":[175],"min":[0],"type":"SCALAR"}],"materials":[{"pbrMetallicRoughness":{"metallicFactor":0,"roughnessFactor":1,"baseColorTexture":{"index":0}},"alphaMode":"MASK","alphaCutoff":0.05,"doubleSided":true}],"textures":[{"sampler":0,"source":0,"name":"texture"}],"samplers":[{"magFilter":9728,"minFilter":9728,"wrapS":33071,"wrapT":33071}],"images":[{"mimeType":"image/png","uri":"data:image/png;base64,"}],"meshes":[{"primitives":[{"mode":4,"attributes":{"POSITION":0,"NORMAL":1,"TEXCOORD_0":2},"indices":3,"material":0}]}]}