{"asset":{"version":"2.0","generator":"Blockbench 4.11.2 glTF exporter"},"scenes":[{"nodes":[10],"name":"blockbench_export"}],"scene":0,"nodes":[{"name":"cuboid","mesh":0},{"rotation":[-0.18301270189221905,-0.18301270189221963,-0.6830127018922185,0.6830127018922202],"translation":[0.24999999999999997,0.13124999999999998,0.5125],"name":"Wheel","mesh":1},{"rotation":[0,0,-0.7071067811865486,0.7071067811865465],"translation":[-0.25000000000000033,0.1,0.5125],"name":"Fender","mesh":2},{"rotation":[0,0,-0.7071067811865486,0.7071067811865465],"translation":[-0.25000000000000033,0.1,-0.55625],"name":"Fender","mesh":3},{"translation":[0,-0.125,-0.03125],"name":"Under","mesh":4},{"translation":[0,-0.125,-0.7437499999999998],"name":"Front","mesh":5},{"rotation":[-0.18301270189221905,0.18301270189221963,0.6830127018922185,0.6830127018922202],"translation":[-0.25,0.13124999999999998,0.5125],"name":"Wheel","mesh":6},{"rotation":[-0.18301270189221905,-0.18301270189221963,-0.6830127018922185,0.6830127018922202],"translation":[0.24999999999999997,0.13124999999999998,-0.5562500000000001],"name":"Wheel","mesh":7},{"rotation":[-0.18301270189221905,0.18301270189221963,0.6830127018922185,0.6830127018922202],"translation":[-0.25,0.13124999999999998,-0.5562500000000001],"name":"Wheel","mesh":8},{"name":"Root","children":[0,1,2,3,4,5,6,7,8]},{"children":[9]}],"bufferViews":[{"buffer":0,"byteOffset":0,"byteLength":8160,"target":34962,"byteStride":12},{"buffer":0,"byteOffset":8160,"byteLength":8160,"target":34962,"byteStride":12},{"buffer":0,"byteOffset":16320,"byteLength":5440,"target":34962,"byteStride":8},{"buffer":0,"byteOffset":21760,"byteLength":2040,"target":34963},{"buffer":0,"byteOffset":23800,"byteLength":3888,"target":34962,"byteStride":12},{"buffer":0,"byteOffset":27688,"byteLength":3888,"target":34962,"byteStride":12},{"buffer":0,"byteOffset":31576,"byteLength":2592,"target":34962,"byteStride":8},{"buffer":0,"byteOffset":34168,"byteLength":864,"target":34963},{"buffer":0,"byteOffset":35032,"byteLength":1056,"target":34962,"byteStride":12},{"buffer":0,"byteOffset":36088,"byteLength":1056,"target":34962,"byteStride":12},{"buffer":0,"byteOffset":37144,"byteLength":704,"target":34962,"byteStride":8},{"buffer":0,"byteOffset":37848,"byteLength":264,"target":34963},{"buffer":0,"byteOffset":38112,"byteLength":1056,"target":34962,"byteStride":12},{"buffer":0,"byteOffset":39168,"byteLength":1056,"target":34962,"byteStride":12},{"buffer":0,"byteOffset":40224,"byteLength":704,"target":34962,"byteStride":8},{"buffer":0,"byteOffset":40928,"byteLength":264,"target":34963},{"buffer":0,"byteOffset":41192,"byteLength":288,"target":34962,"byteStride":12},{"buffer":0,"byteOffset":41480,"byteLength":288,"target":34962,"byteStride":12},{"buffer":0,"byteOffset":41768,"byteLength":192,"target":34962,"byteStride":8},{"buffer":0,"byteOffset":41960,"byteLength":72,"target":34963},{"buffer":0,"byteOffset":42032,"byteLength":672,"target":34962,"byteStride":12},{"buffer":0,"byteOffset":42704,"byteLength":672,"target":34962,"byteStride":12},{"buffer":0,"byteOffset":43376,"byteLength":448,"target":34962,"byteStride":8},{"buffer":0,"byteOffset":43824,"byteLength":168,"target":34963},{"buffer":0,"byteOffset":43992,"byteLength":3888,"target":34962,"byteStride":12},{"buffer":0,"byteOffset":47880,"byteLength":3888,"target":34962,"byteStride":12},{"buffer":0,"byteOffset":51768,"byteLength":2592,"target":34962,"byteStride":8},{"buffer":0,"byteOffset":54360,"byteLength":864,"target":34963},{"buffer":0,"byteOffset":55224,"byteLength":3888,"target":34962,"byteStride":12},{"buffer":0,"byteOffset":59112,"byteLength":3888,"target":34962,"byteStride":12},{"buffer":0,"byteOffset":63000,"byteLength":2592,"target":34962,"byteStride":8},{"buffer":0,"byteOffset":65592,"byteLength":864,"target":34963},{"buffer":0,"byteOffset":66456,"byteLength":3888,"target":34962,"byteStride":12},{"buffer":0,"byteOffset":70344,"byteLength":3888,"target":34962,"byteStride":12},{"buffer":0,"byteOffset":74232,"byteLength":2592,"target":34962,"byteStride":8},{"buffer":0,"byteOffset":76824,"byteLength":864,"target":34963}],"buffers":[{"byteLength":77688,"uri":"data:application/octet-stream;base64,"}],"accessors":[{"bufferView":0,"componentType":5126,"count":680,"max":[0.5,0.625,0.875],"min":[-0.5,0.125,-1],"type":"VEC3"},{"bufferView":1,"componentType":5126,"count":680,"max":[1,0.9987446665763855,1],"min":[-1,-1,-0.976523756980896],"type":"VEC3"},{"bufferView":2,"componentType":5126,"count":680,"max":[0.8407473564147949,0.5852911472320557],"min":[0,0],"type":"VEC2"},{"bufferView":3,"componentType":5123,"count":1020,"max":[679],"min":[0],"type":"SCALAR"},{"bufferView":4,"componentType":5126,"count":324,"max":[0.1328125,0.3125,0.1328125],"min":[-0.1328125,0.1875,-0.1328125],"type":"VEC3"},{"bufferView":5,"componentType":5126,"count":324,"max":[0.985255777835846,1,1],"min":[-0.985255777835846,-1,-1],"type":"VEC3"},{"bufferView":6,"componentType":5126,"count":324,"max":[0.5576867461204529,0.546875],"min":[0.08664999902248383,0],"type":"VEC2"},{"bufferView":7,"componentType":5123,"count":432,"max":[323],"min":[0],"type":"SCALAR"},{"bufferView":8,"componentType":5126,"count":88,"max":[0.025681039318442345,0.8125,0.24375000596046448],"min":[-0.24375000596046448,-0.3125,-0.24375000596046448],"type":"VEC3"},{"bufferView":9,"componentType":5126,"count":88,"max":[1,0.8521854281425476,1],"min":[-1,-0.8544129133224487,-1],"type":"VEC3"},{"bufferView":10,"componentType":5126,"count":88,"max":[0.5497297048568726,0.6015625],"min":[0,0.1015625],"type":"VEC2"},{"bufferView":11,"componentType":5123,"count":132,"max":[87],"min":[0],"type":"SCALAR"},{"bufferView":12,"componentType":5126,"count":88,"max":[0.025681039318442345,0.8125,0.24375000596046448],"min":[-0.24375000596046448,-0.3125,-0.24375000596046448],"type":"VEC3"},{"bufferView":13,"componentType":5126,"count":88,"max":[1,0.8521854281425476,1],"min":[-1,-0.8544129133224487,-1],"type":"VEC3"},{"bufferView":14,"componentType":5126,"count":88,"max":[0.5575422048568726,0.6015625],"min":[0,0.078125],"type":"VEC2"},{"bufferView":15,"componentType":5123,"count":132,"max":[87],"min":[0],"type":"SCALAR"},{"bufferView":16,"componentType":5126,"count":24,"max":[0.53125,0.28125,0.3375000059604645],"min":[-0.53125,0.21875,-0.3375000059604645],"type":"VEC3"},{"bufferView":17,"componentType":5126,"count":24,"max":[1,1,1],"min":[-1,-1,-1],"type":"VEC3"},{"bufferView":18,"componentType":5126,"count":24,"max":[0.6171875,0.4921875],"min":[0.1171875,0.1875],"type":"VEC2"},{"bufferView":19,"componentType":5123,"count":36,"max":[23],"min":[0],"type":"SCALAR"},{"bufferView":20,"componentType":5126,"count":56,"max":[0.53125,0.28125,-0.02500000037252903],"min":[-0.53125,0.21875,-0.25],"type":"VEC3"},{"bufferView":21,"componentType":5126,"count":56,"max":[1,1,1],"min":[-1,-1,-1],"type":"VEC3"},{"bufferView":22,"componentType":5126,"count":56,"max":[0.84765625,0.34062498807907104],"min":[0,0.0546875],"type":"VEC2"},{"bufferView":23,"componentType":5123,"count":84,"max":[55],"min":[0],"type":"SCALAR"},{"bufferView":24,"componentType":5126,"count":324,"max":[0.1328125,0.3125,0.1328125],"min":[-0.1328125,0.1875,-0.1328125],"type":"VEC3"},{"bufferView":25,"componentType":5126,"count":324,"max":[0.985255777835846,1,1],"min":[-0.985255777835846,-1,-1],"type":"VEC3"},{"bufferView":26,"componentType":5126,"count":324,"max":[0.5498742461204529,0.54296875],"min":[0,0.03125],"type":"VEC2"},{"bufferView":27,"componentType":5123,"count":432,"max":[323],"min":[0],"type":"SCALAR"},{"bufferView":28,"componentType":5126,"count":324,"max":[0.1328125,0.3125,0.1328125],"min":[-0.1328125,0.1875,-0.1328125],"type":"VEC3"},{"bufferView":29,"componentType":5126,"count":324,"max":[0.985255777835846,1,1],"min":[-0.985255777835846,-1,-1],"type":"VEC3"},{"bufferView":30,"componentType":5126,"count":324,"max":[0.55859375,0.546875],"min":[0.1171875,0.015625],"type":"VEC2"},{"bufferView":31,"componentType":5123,"count":432,"max":[323],"min":[0],"type":"SCALAR"},{"bufferView":32,"componentType":5126,"count":324,"max":[0.1328125,0.3125,0.1328125],"min":[-0.1328125,0.1875,-0.1328125],"type":"VEC3"},{"bufferView":33,"componentType":5126,"count":324,"max":[0.985255777835846,1,1],"min":[-0.985255777835846,-1,-1],"type":"VEC3"},{"bufferView":34,"componentType":5126,"count":324,"max":[0.557881236076355,0.5546875],"min":[0,0.046875],"type":"VEC2"},{"bufferView":35,"componentType":5123,"count":432,"max":[323],"min":[0],"type":"SCALAR"}],"materials":[{"pbrMetallicRoughness":{"metallicFactor":0,"roughnessFactor":1,"baseColorTexture":{"index":0}},"alphaMode":"MASK","alphaCutoff":0.05,"doubleSided":true}],"textures":[{"sampler":0,"source":0,"name":"Cyberpunk_Car1_Texture.png"}],"samplers":[{"magFilter":9728,"minFilter":9728,"wrapS":33071,"wrapT":33071}],"images":[{"mimeType":"image/png","uri":"data:image/png;base64,"}],"meshes":[{"primitives":[{"mode":4,"attributes":{"POSITION":0,"NORMAL":1,"TEXCOORD_0":2},"indices":3,"material":0}]},{"primitives":[{"mode":4,"attributes":{"POSITION":4,"NORMAL":5,"TEXCOORD_0":6},"indices":7,"material":0}]},{"primitives":[{"mode":4,"attributes":{"POSITION":8,"NORMAL":9,"TEXCOORD_0":10},"indices":11,"material":0}]},{"primitives":[{"mode":4,"attributes":{"POSITION":12,"NORMAL":13,"TEXCOORD_0":14},"indices":15,"material":0}]},{"primitives":[{"mode":4,"attributes":{"POSITION":16,"NORMAL":17,"TEXCOORD_0":18},"indices":19,"material":0}]},{"primitives":[{"mode":4,"attributes":{"POSITION":20,"NORMAL":21,"TEXCOORD_0":22},"indices":23,"material":0}]},{"primitives":[{"mode":4,"attributes":{"POSITION":24,"NORMAL":25,"TEXCOORD_0":26},"indices":27,"material":0}]},{"primitives":[{"mode":4,"attributes":{"POSITION":28,"NORMAL":29,"TEXCOORD_0":30},"indices":31,"material":0}]},{"primitives":[{"mode":4,"attributes":{"POSITION":32,"NORMAL":33,"TEXCOORD_0":34},"indices":35,"material":0}]}]}