{"asset":{"version":"2.0","generator":"Blockbench 4.11.2 glTF exporter"},"scenes":[{"nodes":[13],"name":"blockbench_export"}],"scene":0,"nodes":[{"translation":[0.25000000000000044,-0.1,-0.13124999999999998],"name":"cuboid","mesh":0},{"translation":[0.25000000000000044,0.275,1.18125],"name":"cuboid","mesh":1},{"translation":[0.25000000000000044,-0.037500000000000006,-0.19374999999999998],"name":"cuboid","mesh":2},{"rotation":[0,0,-0.7071067811865486,0.7071067811865465],"name":"Fender","mesh":3},{"rotation":[-0.18301270189221905,0.18301270189221963,0.6830127018922185,0.6830127018922202],"translation":[0.06250000000000044,0.031249999999999972,1.19375],"name":"Wheel","mesh":4},{"rotation":[-0.18301270189221905,-0.18301270189221963,-0.6830127018922185,0.6830127018922202],"translation":[0.43750000000000044,0.031249999999999972,1.19375],"name":"Wheel","mesh":5},{"rotation":[-0.18301270189221905,0.18301270189221963,0.6830127018922185,0.6830127018922202],"translation":[0.06250000000000044,0.031249999999999972,2.81875],"name":"Wheel","mesh":6},{"rotation":[-0.18301270189221905,-0.18301270189221963,-0.6830127018922185,0.6830127018922202],"translation":[0.43750000000000044,0.031249999999999972,2.81875],"name":"Wheel","mesh":7},{"rotation":[-0.18301270189221905,-0.18301270189221963,-0.6830127018922185,0.6830127018922202],"translation":[0.43750000000000044,0.031249999999999972,2.38125],"name":"Wheel","mesh":8},{"rotation":[-0.18301270189221905,0.18301270189221963,0.6830127018922185,0.6830127018922202],"translation":[0.06250000000000044,0.031249999999999972,2.38125],"name":"Wheel","mesh":9},{"rotation":[-0.18301270189221905,-0.18301270189221963,-0.6830127018922185,0.6830127018922202],"translation":[0.43750000000000044,0.031249999999999972,-1.1102230246251565e-16],"name":"Wheel","mesh":10},{"rotation":[-0.18301270189221905,0.18301270189221963,0.6830127018922185,0.6830127018922202],"translation":[0.06250000000000044,0.031249999999999972,-1.1102230246251565e-16],"name":"Wheel","mesh":11},{"translation":[-0.25000000000000044,0.1,-0.68125],"name":"Truck","children":[0,1,2,3,4,5,6,7,8,9,10,11]},{"children":[12]}],"bufferViews":[{"buffer":0,"byteOffset":0,"byteLength":480,"target":34962,"byteStride":12},{"buffer":0,"byteOffset":480,"byteLength":480,"target":34962,"byteStride":12},{"buffer":0,"byteOffset":960,"byteLength":320,"target":34962,"byteStride":8},{"buffer":0,"byteOffset":1280,"byteLength":120,"target":34963},{"buffer":0,"byteOffset":1400,"byteLength":288,"target":34962,"byteStride":12},{"buffer":0,"byteOffset":1688,"byteLength":288,"target":34962,"byteStride":12},{"buffer":0,"byteOffset":1976,"byteLength":192,"target":34962,"byteStride":8},{"buffer":0,"byteOffset":2168,"byteLength":72,"target":34963},{"buffer":0,"byteOffset":2240,"byteLength":288,"target":34962,"byteStride":12},{"buffer":0,"byteOffset":2528,"byteLength":288,"target":34962,"byteStride":12},{"buffer":0,"byteOffset":2816,"byteLength":192,"target":34962,"byteStride":8},{"buffer":0,"byteOffset":3008,"byteLength":72,"target":34963},{"buffer":0,"byteOffset":3080,"byteLength":1056,"target":34962,"byteStride":12},{"buffer":0,"byteOffset":4136,"byteLength":1056,"target":34962,"byteStride":12},{"buffer":0,"byteOffset":5192,"byteLength":704,"target":34962,"byteStride":8},{"buffer":0,"byteOffset":5896,"byteLength":264,"target":34963},{"buffer":0,"byteOffset":6160,"byteLength":3888,"target":34962,"byteStride":12},{"buffer":0,"byteOffset":10048,"byteLength":3888,"target":34962,"byteStride":12},{"buffer":0,"byteOffset":13936,"byteLength":2592,"target":34962,"byteStride":8},{"buffer":0,"byteOffset":16528,"byteLength":864,"target":34963},{"buffer":0,"byteOffset":17392,"byteLength":3888,"target":34962,"byteStride":12},{"buffer":0,"byteOffset":21280,"byteLength":3888,"target":34962,"byteStride":12},{"buffer":0,"byteOffset":25168,"byteLength":2592,"target":34962,"byteStride":8},{"buffer":0,"byteOffset":27760,"byteLength":864,"target":34963},{"buffer":0,"byteOffset":28624,"byteLength":3888,"target":34962,"byteStride":12},{"buffer":0,"byteOffset":32512,"byteLength":3888,"target":34962,"byteStride":12},{"buffer":0,"byteOffset":36400,"byteLength":2592,"target":34962,"byteStride":8},{"buffer":0,"byteOffset":38992,"byteLength":864,"target":34963},{"buffer":0,"byteOffset":39856,"byteLength":3888,"target":34962,"byteStride":12},{"buffer":0,"byteOffset":43744,"byteLength":3888,"target":34962,"byteStride":12},{"buffer":0,"byteOffset":47632,"byteLength":2592,"target":34962,"byteStride":8},{"buffer":0,"byteOffset":50224,"byteLength":864,"target":34963},{"buffer":0,"byteOffset":51088,"byteLength":3888,"target":34962,"byteStride":12},{"buffer":0,"byteOffset":54976,"byteLength":3888,"target":34962,"byteStride":12},{"buffer":0,"byteOffset":58864,"byteLength":2592,"target":34962,"byteStride":8},{"buffer":0,"byteOffset":61456,"byteLength":864,"target":34963},{"buffer":0,"byteOffset":62320,"byteLength":3888,"target":34962,"byteStride":12},{"buffer":0,"byteOffset":66208,"byteLength":3888,"target":34962,"byteStride":12},{"buffer":0,"byteOffset":70096,"byteLength":2592,"target":34962,"byteStride":8},{"buffer":0,"byteOffset":72688,"byteLength":864,"target":34963},{"buffer":0,"byteOffset":73552,"byteLength":3888,"target":34962,"byteStride":12},{"buffer":0,"byteOffset":77440,"byteLength":3888,"target":34962,"byteStride":12},{"buffer":0,"byteOffset":81328,"byteLength":2592,"target":34962,"byteStride":8},{"buffer":0,"byteOffset":83920,"byteLength":864,"target":34963},{"buffer":0,"byteOffset":84784,"byteLength":3888,"target":34962,"byteStride":12},{"buffer":0,"byteOffset":88672,"byteLength":3888,"target":34962,"byteStride":12},{"buffer":0,"byteOffset":92560,"byteLength":2592,"target":34962,"byteStride":8},{"buffer":0,"byteOffset":95152,"byteLength":864,"target":34963}],"buffers":[{"byteLength":96016,"uri":"data:application/octet-stream;base64,"}],"accessors":[{"bufferView":0,"componentType":5126,"count":40,"max":[0.4375,0.875,0.5],"min":[-0.4375,0.125,-0.5],"type":"VEC3"},{"bufferView":1,"componentType":5126,"count":40,"max":[1,1,1],"min":[-1,-1,-1],"type":"VEC3"},{"bufferView":2,"componentType":5126,"count":40,"max":[0.5546875,0.5703125],"min":[0,0.265625],"type":"VEC2"},{"bufferView":3,"componentType":5123,"count":60,"max":[39],"min":[0],"type":"SCALAR"},{"bufferView":4,"componentType":5126,"count":24,"max":[0.5625,0.75,2.0625],"min":[-0.5625,-0.25,-0.75],"type":"VEC3"},{"bufferView":5,"componentType":5126,"count":24,"max":[1,1,1],"min":[-1,-1,-1],"type":"VEC3"},{"bufferView":6,"componentType":5126,"count":24,"max":[0.6484375,0.484375],"min":[0,0],"type":"VEC2"},{"bufferView":7,"componentType":5123,"count":36,"max":[23],"min":[0],"type":"SCALAR"},{"bufferView":8,"componentType":5126,"count":24,"max":[0.25,0.375,0.78125],"min":[-0.25,0.125,0.53125],"type":"VEC3"},{"bufferView":9,"componentType":5126,"count":24,"max":[1,1,1],"min":[-1,-1,-1],"type":"VEC3"},{"bufferView":10,"componentType":5126,"count":24,"max":[0.6484375,0.578125],"min":[0.3984375,0.3125],"type":"VEC2"},{"bufferView":11,"componentType":5123,"count":36,"max":[23],"min":[0],"type":"SCALAR"},{"bufferView":12,"componentType":5126,"count":88,"max":[0.025681039318442345,0.78125,0.24375000596046448],"min":[-0.24375000596046448,-0.28125,-0.24375000596046448],"type":"VEC3"},{"bufferView":13,"componentType":5126,"count":88,"max":[1,0.8650736808776855,1],"min":[-1,-0.8671514391899109,-1],"type":"VEC3"},{"bufferView":14,"componentType":5126,"count":88,"max":[0.6844953298568726,0.75],"min":[0.0018141379114240408,0.1875],"type":"VEC2"},{"bufferView":15,"componentType":5123,"count":132,"max":[87],"min":[0],"type":"SCALAR"},{"bufferView":16,"componentType":5126,"count":324,"max":[0.15625,0.3125,0.15625],"min":[-0.15625,0.1875,-0.15625],"type":"VEC3"},{"bufferView":17,"componentType":5126,"count":324,"max":[0.985255777835846,1,1],"min":[-0.985255777835846,-1,-1],"type":"VEC3"},{"bufferView":18,"componentType":5126,"count":324,"max":[0.6837421655654907,0.671875],"min":[0.05035312473773956,0],"type":"VEC2"},{"bufferView":19,"componentType":5123,"count":432,"max":[323],"min":[0],"type":"SCALAR"},{"bufferView":20,"componentType":5126,"count":324,"max":[0.15625,0.3125,0.15625],"min":[-0.15625,0.1875,-0.15625],"type":"VEC3"},{"bufferView":21,"componentType":5126,"count":324,"max":[0.985255777835846,1,1],"min":[-0.985255777835846,-1,-1],"type":"VEC3"},{"bufferView":22,"componentType":5126,"count":324,"max":[0.6875,0.6796875],"min":[0.1640625,0.0234375],"type":"VEC2"},{"bufferView":23,"componentType":5123,"count":432,"max":[323],"min":[0],"type":"SCALAR"},{"bufferView":24,"componentType":5126,"count":324,"max":[0.15625,0.3125,0.15625],"min":[-0.15625,0.1875,-0.15625],"type":"VEC3"},{"bufferView":25,"componentType":5126,"count":324,"max":[0.985255777835846,1,1],"min":[-0.985255777835846,-1,-1],"type":"VEC3"},{"bufferView":26,"componentType":5126,"count":324,"max":[0.6875,0.6796875],"min":[0,0.0703125],"type":"VEC2"},{"bufferView":27,"componentType":5123,"count":432,"max":[323],"min":[0],"type":"SCALAR"},{"bufferView":28,"componentType":5126,"count":324,"max":[0.15625,0.3125,0.15625],"min":[-0.15625,0.1875,-0.15625],"type":"VEC3"},{"bufferView":29,"componentType":5126,"count":324,"max":[0.985255777835846,1,1],"min":[-0.985255777835846,-1,-1],"type":"VEC3"},{"bufferView":30,"componentType":5126,"count":324,"max":[0.6837421655654907,0.6875],"min":[0.006465625017881393,0.09375],"type":"VEC2"},{"bufferView":31,"componentType":5123,"count":432,"max":[323],"min":[0],"type":"SCALAR"},{"bufferView":32,"componentType":5126,"count":324,"max":[0.15625,0.3125,0.15625],"min":[-0.15625,0.1875,-0.15625],"type":"VEC3"},{"bufferView":33,"componentType":5126,"count":324,"max":[0.985255777835846,1,1],"min":[-0.985255777835846,-1,-1],"type":"VEC3"},{"bufferView":34,"componentType":5126,"count":324,"max":[0.6875,0.6875],"min":[0.0689656212925911,0.1171875],"type":"VEC2"},{"bufferView":35,"componentType":5123,"count":432,"max":[323],"min":[0],"type":"SCALAR"},{"bufferView":36,"componentType":5126,"count":324,"max":[0.15625,0.3125,0.15625],"min":[-0.15625,0.1875,-0.15625],"type":"VEC3"},{"bufferView":37,"componentType":5126,"count":324,"max":[0.985255777835846,1,1],"min":[-0.985255777835846,-1,-1],"type":"VEC3"},{"bufferView":38,"componentType":5126,"count":324,"max":[0.6863437294960022,0.6875],"min":[0.125,0.1640625],"type":"VEC2"},{"bufferView":39,"componentType":5123,"count":432,"max":[323],"min":[0],"type":"SCALAR"},{"bufferView":40,"componentType":5126,"count":324,"max":[0.1328125,0.3125,0.1328125],"min":[-0.1328125,0.1875,-0.1328125],"type":"VEC3"},{"bufferView":41,"componentType":5126,"count":324,"max":[0.985255777835846,1,1],"min":[-0.985255777835846,-1,-1],"type":"VEC3"},{"bufferView":42,"componentType":5126,"count":324,"max":[0.6796875,0.671875],"min":[0.09494687616825104,0.234375],"type":"VEC2"},{"bufferView":43,"componentType":5123,"count":432,"max":[323],"min":[0],"type":"SCALAR"},{"bufferView":44,"componentType":5126,"count":324,"max":[0.1328125,0.3125,0.1328125],"min":[-0.1328125,0.1875,-0.1328125],"type":"VEC3"},{"bufferView":45,"componentType":5126,"count":324,"max":[0.985255777835846,1,1],"min":[-0.985255777835846,-1,-1],"type":"VEC3"},{"bufferView":46,"componentType":5126,"count":324,"max":[0.6847593784332275,0.671875],"min":[0.09375,0.2109375],"type":"VEC2"},{"bufferView":47,"componentType":5123,"count":432,"max":[323],"min":[0],"type":"SCALAR"}],"materials":[{"pbrMetallicRoughness":{"metallicFactor":0,"roughnessFactor":1,"baseColorTexture":{"index":0}},"alphaMode":"MASK","alphaCutoff":0.05,"doubleSided":true}],"textures":[{"sampler":0,"source":0,"name":"Cyberpunk_Truck1_Texture"}],"samplers":[{"magFilter":9728,"minFilter":9728,"wrapS":33071,"wrapT":33071}],"images":[{"mimeType":"image/png","uri":"data:image/png;base64,"}],"meshes":[{"primitives":[{"mode":4,"attributes":{"POSITION":0,"NORMAL":1,"TEXCOORD_0":2},"indices":3,"material":0}]},{"primitives":[{"mode":4,"attributes":{"POSITION":4,"NORMAL":5,"TEXCOORD_0":6},"indices":7,"material":0}]},{"primitives":[{"mode":4,"attributes":{"POSITION":8,"NORMAL":9,"TEXCOORD_0":10},"indices":11,"material":0}]},{"primitives":[{"mode":4,"attributes":{"POSITION":12,"NORMAL":13,"TEXCOORD_0":14},"indices":15,"material":0}]},{"primitives":[{"mode":4,"attributes":{"POSITION":16,"NORMAL":17,"TEXCOORD_0":18},"indices":19,"material":0}]},{"primitives":[{"mode":4,"attributes":{"POSITION":20,"NORMAL":21,"TEXCOORD_0":22},"indices":23,"material":0}]},{"primitives":[{"mode":4,"attributes":{"POSITION":24,"NORMAL":25,"TEXCOORD_0":26},"indices":27,"material":0}]},{"primitives":[{"mode":4,"attributes":{"POSITION":28,"NORMAL":29,"TEXCOORD_0":30},"indices":31,"material":0}]},{"primitives":[{"mode":4,"attributes":{"POSITION":32,"NORMAL":33,"TEXCOORD_0":34},"indices":35,"material":0}]},{"primitives":[{"mode":4,"attributes":{"POSITION":36,"NORMAL":37,"TEXCOORD_0":38},"indices":39,"material":0}]},{"primitives":[{"mode":4,"attributes":{"POSITION":40,"NORMAL":41,"TEXCOORD_0":42},"indices":43,"material":0}]},{"primitives":[{"mode":4,"attributes":{"POSITION":44,"NORMAL":45,"TEXCOORD_0":46},"indices":47,"material":0}]}]}