{"asset":{"version":"2.0","generator":"Blockbench 4.11.2 glTF exporter"},"scenes":[{"nodes":[9],"name":"blockbench_export"}],"scene":0,"nodes":[{"translation":[0,0.08750000000000002,0],"name":"cuboid","mesh":0},{"rotation":[-0.18301270189221905,-0.18301270189221963,-0.6830127018922185,0.6830127018922202],"translation":[-0.03750000000000003,0.12499999999999997,-0.4437500000000001],"name":"Wheel","mesh":1},{"rotation":[-0.18301270189221905,0.18301270189221963,0.6830127018922185,0.6830127018922202],"translation":[0.037500000000000006,0.12499999999999997,-0.4437500000000001],"name":"Wheel","mesh":2},{"rotation":[-0.18301270189221905,0.18301270189221963,0.6830127018922185,0.6830127018922202],"translation":[0.037500000000000006,0.14374999999999996,0.39375000000000004],"name":"Wheel","mesh":3},{"rotation":[-0.18301270189221905,-0.18301270189221963,-0.6830127018922185,0.6830127018922202],"translation":[-0.03750000000000003,0.14374999999999996,0.39375000000000004],"name":"Wheel","mesh":4},{"translation":[0,-0.13124999999999995,-0.04375000000000001],"name":"Under","mesh":5},{"rotation":[0,0,-0.7071067811865486,0.7071067811865465],"translation":[-0.25000000000000033,0.1,-0.4437500000000003],"name":"Fender","mesh":6},{"rotation":[0,0,-0.7071067811865486,0.7071067811865465],"translation":[-0.25000000000000033,0.13125,0.39374999999999993],"name":"Fender","mesh":7},{"name":"Root","children":[0,1,2,3,4,5,6,7]},{"children":[8]}],"bufferViews":[{"buffer":0,"byteOffset":0,"byteLength":1344,"target":34962,"byteStride":12},{"buffer":0,"byteOffset":1344,"byteLength":1344,"target":34962,"byteStride":12},{"buffer":0,"byteOffset":2688,"byteLength":896,"target":34962,"byteStride":8},{"buffer":0,"byteOffset":3584,"byteLength":336,"target":34963},{"buffer":0,"byteOffset":3920,"byteLength":3888,"target":34962,"byteStride":12},{"buffer":0,"byteOffset":7808,"byteLength":3888,"target":34962,"byteStride":12},{"buffer":0,"byteOffset":11696,"byteLength":2592,"target":34962,"byteStride":8},{"buffer":0,"byteOffset":14288,"byteLength":864,"target":34963},{"buffer":0,"byteOffset":15152,"byteLength":3888,"target":34962,"byteStride":12},{"buffer":0,"byteOffset":19040,"byteLength":3888,"target":34962,"byteStride":12},{"buffer":0,"byteOffset":22928,"byteLength":2592,"target":34962,"byteStride":8},{"buffer":0,"byteOffset":25520,"byteLength":864,"target":34963},{"buffer":0,"byteOffset":26384,"byteLength":3888,"target":34962,"byteStride":12},{"buffer":0,"byteOffset":30272,"byteLength":3888,"target":34962,"byteStride":12},{"buffer":0,"byteOffset":34160,"byteLength":2592,"target":34962,"byteStride":8},{"buffer":0,"byteOffset":36752,"byteLength":864,"target":34963},{"buffer":0,"byteOffset":37616,"byteLength":3888,"target":34962,"byteStride":12},{"buffer":0,"byteOffset":41504,"byteLength":3888,"target":34962,"byteStride":12},{"buffer":0,"byteOffset":45392,"byteLength":2592,"target":34962,"byteStride":8},{"buffer":0,"byteOffset":47984,"byteLength":864,"target":34963},{"buffer":0,"byteOffset":48848,"byteLength":288,"target":34962,"byteStride":12},{"buffer":0,"byteOffset":49136,"byteLength":288,"target":34962,"byteStride":12},{"buffer":0,"byteOffset":49424,"byteLength":192,"target":34962,"byteStride":8},{"buffer":0,"byteOffset":49616,"byteLength":72,"target":34963},{"buffer":0,"byteOffset":49688,"byteLength":1056,"target":34962,"byteStride":12},{"buffer":0,"byteOffset":50744,"byteLength":1056,"target":34962,"byteStride":12},{"buffer":0,"byteOffset":51800,"byteLength":704,"target":34962,"byteStride":8},{"buffer":0,"byteOffset":52504,"byteLength":264,"target":34963},{"buffer":0,"byteOffset":52768,"byteLength":1056,"target":34962,"byteStride":12},{"buffer":0,"byteOffset":53824,"byteLength":1056,"target":34962,"byteStride":12},{"buffer":0,"byteOffset":54880,"byteLength":704,"target":34962,"byteStride":8},{"buffer":0,"byteOffset":55584,"byteLength":264,"target":34963}],"buffers":[{"byteLength":55848,"uri":"data:application/octet-stream;base64,"}],"accessors":[{"bufferView":0,"componentType":5126,"count":112,"max":[0.21875,0.625,0.6875],"min":[-0.21875,0,-0.6875],"type":"VEC3"},{"bufferView":1,"componentType":5126,"count":112,"max":[1,1,1],"min":[-1,-1,-1],"type":"VEC3"},{"bufferView":2,"componentType":5126,"count":112,"max":[0.609375,1],"min":[0,0],"type":"VEC2"},{"bufferView":3,"componentType":5123,"count":168,"max":[111],"min":[0],"type":"SCALAR"},{"bufferView":4,"componentType":5126,"count":324,"max":[0.125,0.3125,0.125],"min":[-0.125,0.1875,-0.125],"type":"VEC3"},{"bufferView":5,"componentType":5126,"count":324,"max":[0.985255777835846,1,1],"min":[-0.985255777835846,-1,-1],"type":"VEC3"},{"bufferView":6,"componentType":5126,"count":324,"max":[0.8645562529563904,0.8359375],"min":[0.046875,0.125],"type":"VEC2"},{"bufferView":7,"componentType":5123,"count":432,"max":[323],"min":[0],"type":"SCALAR"},{"bufferView":8,"componentType":5126,"count":324,"max":[0.125,0.3125,0.125],"min":[-0.125,0.1875,-0.125],"type":"VEC3"},{"bufferView":9,"componentType":5126,"count":324,"max":[0.985255777835846,1,1],"min":[-0.985255777835846,-1,-1],"type":"VEC3"},{"bufferView":10,"componentType":5126,"count":324,"max":[0.8645562529563904,0.859375],"min":[0.046875,0],"type":"VEC2"},{"bufferView":11,"componentType":5123,"count":432,"max":[323],"min":[0],"type":"SCALAR"},{"bufferView":12,"componentType":5126,"count":324,"max":[0.14374999701976776,0.3125,0.14374999701976776],"min":[-0.14374999701976776,0.1875,-0.14374999701976776],"type":"VEC3"},{"bufferView":13,"componentType":5126,"count":324,"max":[0.985255777835846,1,1],"min":[-0.985255777835846,-1,-1],"type":"VEC3"},{"bufferView":14,"componentType":5126,"count":324,"max":[0.86709064245224,0.8359375],"min":[0.1094718724489212,0.00625002384185791],"type":"VEC2"},{"bufferView":15,"componentType":5123,"count":432,"max":[323],"min":[0],"type":"SCALAR"},{"bufferView":16,"componentType":5126,"count":324,"max":[0.14374999701976776,0.3125,0.14374999701976776],"min":[-0.14374999701976776,0.1875,-0.14374999701976776],"type":"VEC3"},{"bufferView":17,"componentType":5126,"count":324,"max":[0.985255777835846,1,1],"min":[-0.985255777835846,-1,-1],"type":"VEC3"},{"bufferView":18,"componentType":5126,"count":324,"max":[0.8515625,0.8125],"min":[0.12812499701976776,0],"type":"VEC2"},{"bufferView":19,"componentType":5123,"count":432,"max":[323],"min":[0],"type":"SCALAR"},{"bufferView":20,"componentType":5126,"count":24,"max":[0.25,0.296875,0.21250000596046448],"min":[-0.25,0.203125,-0.21250000596046448],"type":"VEC3"},{"bufferView":21,"componentType":5126,"count":24,"max":[1,1,1],"min":[-1,-1,-1],"type":"VEC3"},{"bufferView":22,"componentType":5126,"count":24,"max":[0.828125,0.46875],"min":[0.359375,0.078125],"type":"VEC2"},{"bufferView":23,"componentType":5123,"count":36,"max":[23],"min":[0],"type":"SCALAR"},{"bufferView":24,"componentType":5126,"count":88,"max":[0.02749982662498951,0.5625,0.21250000596046448],"min":[-0.21875,-0.0625,-0.21250000596046448],"type":"VEC3"},{"bufferView":25,"componentType":5126,"count":88,"max":[1,0.897201418876648,1],"min":[-1,-0.897201418876648,-1],"type":"VEC3"},{"bufferView":26,"componentType":5126,"count":88,"max":[0.7857076525688171,0.875],"min":[0,0.09375],"type":"VEC2"},{"bufferView":27,"componentType":5123,"count":132,"max":[87],"min":[0],"type":"SCALAR"},{"bufferView":28,"componentType":5126,"count":88,"max":[0.06499982625246048,0.5625,0.25],"min":[-0.2562499940395355,-0.0625,-0.25],"type":"VEC3"},{"bufferView":29,"componentType":5126,"count":88,"max":[1,0.9267676472663879,1],"min":[-1,-0.9275971055030823,-1],"type":"VEC3"},{"bufferView":30,"componentType":5126,"count":88,"max":[0.71875,0.875],"min":[0.002092968672513962,0],"type":"VEC2"},{"bufferView":31,"componentType":5123,"count":132,"max":[87],"min":[0],"type":"SCALAR"}],"materials":[{"pbrMetallicRoughness":{"metallicFactor":0,"roughnessFactor":1,"baseColorTexture":{"index":0}},"alphaMode":"MASK","alphaCutoff":0.05,"doubleSided":true}],"textures":[{"sampler":0,"source":0,"name":"Cyberpunk_Car2_Texture.png"}],"samplers":[{"magFilter":9728,"minFilter":9728,"wrapS":33071,"wrapT":33071}],"images":[{"mimeType":"image/png","uri":"data:image/png;base64,"}],"meshes":[{"primitives":[{"mode":4,"attributes":{"POSITION":0,"NORMAL":1,"TEXCOORD_0":2},"indices":3,"material":0}]},{"primitives":[{"mode":4,"attributes":{"POSITION":4,"NORMAL":5,"TEXCOORD_0":6},"indices":7,"material":0}]},{"primitives":[{"mode":4,"attributes":{"POSITION":8,"NORMAL":9,"TEXCOORD_0":10},"indices":11,"material":0}]},{"primitives":[{"mode":4,"attributes":{"POSITION":12,"NORMAL":13,"TEXCOORD_0":14},"indices":15,"material":0}]},{"primitives":[{"mode":4,"attributes":{"POSITION":16,"NORMAL":17,"TEXCOORD_0":18},"indices":19,"material":0}]},{"primitives":[{"mode":4,"attributes":{"POSITION":20,"NORMAL":21,"TEXCOORD_0":22},"indices":23,"material":0}]},{"primitives":[{"mode":4,"attributes":{"POSITION":24,"NORMAL":25,"TEXCOORD_0":26},"indices":27,"material":0}]},{"primitives":[{"mode":4,"attributes":{"POSITION":28,"NORMAL":29,"TEXCOORD_0":30},"indices":31,"material":0}]}]}